<svg width="889" height="160" viewBox="0 0 889 160" fill="none" xmlns="http://www.w3.org/2000/svg">
  <path
    d="M3.58594 107.84C2.88281 106.785 2.60156 105.098 2.74219 102.777C2.95312 100.457 3.41016 97.8555 4.11328 94.9727C4.88672 92.0195 5.83594 88.9609 6.96094 85.7969C8.08594 82.5625 9.21094 79.5039 10.3359 76.6211C11.4609 73.668 12.4805 71.0312 13.3945 68.7109C14.3789 66.3906 15.082 64.7031 15.5039 63.6484C15.9961 62.5938 16.6289 61.1172 17.4023 59.2188C18.2461 57.25 19.125 55.1406 20.0391 52.8906C21.0234 50.5703 22.043 48.1445 23.0977 45.6133C24.1523 43.082 25.1367 40.6562 26.0508 38.3359C27.0352 36.0156 27.9141 33.9062 28.6875 32.0078C29.5312 30.1094 30.1992 28.5977 30.6914 27.4727C32.2383 26.9805 33.2578 27.0508 33.75 27.6836C34.2422 28.2461 34.3828 29.2305 34.1719 30.6367C33.9609 32.043 33.4688 33.7656 32.6953 35.8047C31.9219 37.7734 31.0078 39.918 29.9531 42.2383C28.9688 44.4883 27.9141 46.8086 26.7891 49.1992C25.7344 51.5898 24.75 53.875 23.8359 56.0547C22.9922 58.1641 22.3242 60.0977 21.832 61.8555C21.4102 63.6133 21.3047 65.0195 21.5156 66.0742C22.7812 66.2148 24.2227 66.2148 25.8398 66.0742C27.5273 65.9336 29.2148 65.7227 30.9023 65.4414C32.6602 65.1602 34.3828 64.8438 36.0703 64.4922C37.7578 64.1406 39.2344 63.8594 40.5 63.6484C46.8984 62.5938 51.9961 61.082 55.793 59.1133C59.6602 57.1445 62.8594 54.6484 65.3906 51.625C67.9922 48.5312 70.2422 44.8398 72.1406 40.5508C74.0391 36.2617 76.2188 31.2695 78.6797 25.5742C79.3125 24.3789 79.875 23.8867 80.3672 24.0977C80.8594 24.2383 81.2461 24.7305 81.5273 25.5742C81.8789 26.3477 82.125 27.2266 82.2656 28.2109C82.4062 29.1953 82.4062 29.8984 82.2656 30.3203C82.1953 30.5312 81.9844 30.9883 81.6328 31.6914C81.2812 32.3945 80.8945 33.168 80.4727 34.0117C80.0508 34.7852 79.6641 35.5234 79.3125 36.2266C78.9609 36.8594 78.75 37.2812 78.6797 37.4922C78.5391 37.7734 78.3633 38.2656 78.1523 38.9688C77.9414 39.6016 77.6953 40.3047 77.4141 41.0781C77.1328 41.8516 76.8867 42.5898 76.6758 43.293C76.4648 43.9258 76.3242 44.3828 76.2539 44.6641C76.6055 44.7344 77.0625 45.0859 77.625 45.7188C78.2578 46.2813 78.6094 46.7383 78.6797 47.0898C78.8906 48.2852 78.5039 49.6563 77.5195 51.2031C76.5352 52.6797 75.3047 54.2266 73.8281 55.8438C72.4219 57.4609 71.0156 59.043 69.6094 60.5898C68.2734 62.1367 67.3594 63.5781 66.8672 64.9141C63.9844 71.9453 61.4883 78.9766 59.3789 86.0078C57.3398 93.0391 55.8281 100.316 54.8438 107.84C54.6328 108.191 54.3164 108.543 53.8945 108.895C53.4727 109.246 53.0156 109.281 52.5234 109C52.3828 107.453 52.4883 105.344 52.8398 102.672C53.2617 99.9297 53.7891 96.9766 54.4219 93.8125C55.0547 90.5781 55.7578 87.3086 56.5312 84.0039C57.3047 80.6992 58.0078 77.6758 58.6406 74.9336C59.3437 72.1211 59.9062 69.8008 60.3281 67.9727C60.75 66.1445 60.9258 65.125 60.8555 64.9141C59.3789 64.6328 57.4805 64.5977 55.1602 64.8086C52.8398 64.9492 50.3086 65.2656 47.5664 65.7578C44.8242 66.1797 41.9766 66.707 39.0234 67.3398C36.0703 67.9727 33.1875 68.6758 30.375 69.4492C27.6328 70.1523 25.0664 70.8555 22.6758 71.5586C20.2852 72.1914 18.3164 72.7539 16.7695 73.2461C15.5742 75.918 14.5898 78.8711 13.8164 82.1055C13.043 85.2695 12.2344 88.4688 11.3906 91.7031C10.6172 94.9375 9.73828 98.0664 8.75391 101.09C7.76953 104.043 6.46875 106.68 4.85156 109C4.71094 108.93 4.46484 108.754 4.11328 108.473C3.83203 108.191 3.65625 107.98 3.58594 107.84ZM75.9375 107.84C78.8203 98.5586 81.4219 91.2109 83.7422 85.7969C86.1328 80.3125 88.1016 76.4805 89.6484 74.3008C91.2656 72.1211 92.3555 71.418 92.918 72.1914C93.4805 72.9648 93.4102 74.9336 92.707 78.0977C92.0742 81.2617 90.668 85.5156 88.4883 90.8594C86.3789 96.1328 83.3906 102.18 79.5234 109C78.9609 109.211 78.293 109.246 77.5195 109.105C76.7461 108.965 76.2188 108.543 75.9375 107.84ZM94.3945 57.1094C94.2539 56.7578 94.1836 56.125 94.1836 55.2109C94.1836 54.2969 94.2539 53.7344 94.3945 53.5234C96.0117 52.9609 97.2422 52.8906 98.0859 53.3125C98.9297 53.7344 99.457 54.3672 99.668 55.2109C99.8789 55.9844 99.8438 56.8281 99.5625 57.7422C99.3516 58.6562 98.9648 59.3594 98.4023 59.8516C97.8398 60.2734 97.1719 60.3438 96.3984 60.0625C95.6953 59.7109 95.0273 58.7266 94.3945 57.1094ZM100.301 124.398C99.9492 123.414 100.125 122.254 100.828 120.918C101.461 119.652 102.27 118.352 103.254 117.016C104.309 115.75 105.363 114.484 106.418 113.219C107.473 111.953 108.211 110.898 108.633 110.055C109.266 108.789 109.723 107.523 110.004 106.258C110.285 104.992 110.461 103.727 110.531 102.461C110.602 101.195 110.637 99.9297 110.637 98.6641C110.707 97.3281 110.848 95.957 111.059 94.5508C111.34 92.582 111.797 91.8789 112.43 92.4414C113.133 92.9336 113.766 94.1289 114.328 96.0273C114.891 97.8555 115.242 100 115.383 102.461C115.594 104.922 115.348 107.066 114.645 108.895C114.504 109.105 114.223 109.738 113.801 110.793C113.379 111.848 112.816 113.043 112.113 114.379C111.48 115.785 110.707 117.227 109.793 118.703C108.949 120.25 108.035 121.586 107.051 122.711C106.137 123.906 105.188 124.785 104.203 125.348C103.289 125.98 102.375 126.086 101.461 125.664C101.32 125.594 101.109 125.383 100.828 125.031C100.547 124.75 100.371 124.539 100.301 124.398ZM178.559 105.414C178.418 104.922 178.383 104.254 178.453 103.41C178.594 102.496 178.734 101.582 178.875 100.668C179.086 99.7539 179.297 98.9453 179.508 98.2422C179.719 97.5391 179.824 97.1523 179.824 97.082L203.66 35.0664C204.152 33.8008 204.609 33.3438 205.031 33.6953C205.453 33.9766 205.77 34.6445 205.98 35.6992C206.262 36.6836 206.402 37.8438 206.402 39.1797C206.402 40.4453 206.262 41.4648 205.98 42.2383C203.73 47.582 201.445 52.9609 199.125 58.375C196.875 63.7188 194.695 69.1328 192.586 74.6172C190.547 80.0312 188.613 85.5156 186.785 91.0703C184.957 96.5547 183.41 102.145 182.145 107.84C181.582 108.191 181.09 108.332 180.668 108.262C180.316 108.191 179.965 108.016 179.613 107.734C179.332 107.383 179.086 106.996 178.875 106.574C178.734 106.152 178.629 105.766 178.559 105.414ZM263.355 106.574C261.668 105.168 260.719 103.094 260.508 100.352C260.367 97.6094 260.754 94.5156 261.668 91.0703C262.652 87.625 264.059 84.0391 265.887 80.3125C267.785 76.5156 269.965 72.9297 272.426 69.5547C274.887 66.1094 277.559 63.0508 280.441 60.3789C283.324 57.6367 286.207 55.6328 289.09 54.3672C291.973 53.0313 294.785 52.5742 297.527 52.9961C300.27 53.3477 302.766 54.9297 305.016 57.7422C306.422 59.5 307.266 61.293 307.547 63.1211C307.828 64.8789 307.793 66.707 307.441 68.6055C307.09 70.4336 306.527 72.332 305.754 74.3008C304.98 76.1992 304.207 78.1328 303.434 80.1016C302.73 82.0703 302.133 84.0742 301.641 86.1133C301.219 88.1523 301.148 90.2266 301.43 92.3359C301.781 95.0078 302.977 96.5898 305.016 97.082C307.055 97.5742 309.48 97.4336 312.293 96.6602C315.176 95.8867 318.199 94.6562 321.363 92.9688C324.527 91.2812 327.445 89.5938 330.117 87.9062C332.859 86.2188 335.109 84.7422 336.867 83.4766C338.695 82.2109 339.609 81.5781 339.609 81.5781C341.578 81.1562 342.668 81.2969 342.879 82C343.16 82.6328 342.773 83.6172 341.719 84.9531C340.734 86.2188 339.223 87.6953 337.184 89.3828C335.145 91 332.824 92.582 330.223 94.1289C327.621 95.6758 324.844 97.082 321.891 98.3477C318.938 99.6133 316.055 100.492 313.242 100.984C310.43 101.406 307.758 101.371 305.227 100.879C302.766 100.316 300.727 99.0508 299.109 97.082C298.336 96.2383 297.738 95.3945 297.316 94.5508C296.965 93.707 296.367 92.9688 295.523 92.3359C294.469 93.3203 293.203 94.6211 291.727 96.2383C290.25 97.7852 288.633 99.3672 286.875 100.984C285.188 102.531 283.359 104.008 281.391 105.414C279.492 106.82 277.523 107.875 275.484 108.578C273.445 109.281 271.371 109.527 269.262 109.316C267.223 109.105 265.254 108.191 263.355 106.574ZM264.516 102.988C265.148 105.238 266.555 106.293 268.734 106.152C270.914 105.941 273.445 104.852 276.328 102.883C279.211 100.914 282.199 98.2422 285.293 94.8672C288.387 91.4219 291.164 87.625 293.625 83.4766C296.086 79.2578 297.949 74.8281 299.215 70.1875C300.551 65.5469 300.902 60.9766 300.27 56.4766C298.582 55.1406 296.473 55.1055 293.941 56.3711C291.41 57.5664 288.703 59.5703 285.82 62.3828C283.008 65.125 280.195 68.4297 277.383 72.2969C274.641 76.0938 272.215 79.9609 270.105 83.8984C267.996 87.7656 266.379 91.4219 265.254 94.8672C264.199 98.3125 263.953 101.02 264.516 102.988ZM396.984 106.574C396.211 105.66 395.754 104.641 395.613 103.516C395.543 102.32 395.613 101.16 395.824 100.035C396.105 98.8398 396.457 97.7148 396.879 96.6602C397.371 95.5352 397.828 94.5156 398.25 93.6016C398.531 92.8984 399.094 91.6328 399.938 89.8047C400.852 87.9062 401.801 85.9375 402.785 83.8984C403.84 81.8594 404.824 79.9609 405.738 78.2031C406.652 76.375 407.285 75.1094 407.637 74.4062V72.0859C406.934 71.7344 405.492 72.2266 403.312 73.5625C401.133 74.8281 398.602 76.6211 395.719 78.9414C392.836 81.1914 389.777 83.7227 386.543 86.5352C383.309 89.3477 380.25 92.0547 377.367 94.6562C374.555 97.1875 372.094 99.4727 369.984 101.512C367.875 103.48 366.539 104.781 365.977 105.414C364.43 105.906 363.41 105.59 362.918 104.465C362.496 103.27 362.391 101.652 362.602 99.6133C362.812 97.5039 363.234 95.1836 363.867 92.6523C364.5 90.0508 365.133 87.625 365.766 85.375C366.469 83.0547 367.066 81.0859 367.559 79.4688C368.121 77.8516 368.367 76.9727 368.297 76.832C366.891 76.3398 365.414 76.5156 363.867 77.3594C362.32 78.2031 360.738 79.4688 359.121 81.1562C357.504 82.7734 355.887 84.707 354.27 86.957C352.652 89.1367 351.035 91.3516 349.418 93.6016C347.801 95.7812 346.254 97.8906 344.777 99.9297C343.301 101.898 341.895 103.516 340.559 104.781C339.223 106.047 337.957 106.785 336.762 106.996C335.637 107.207 334.652 106.68 333.809 105.414C333.738 105.344 333.703 105.168 333.703 104.887C333.703 104.605 333.738 104.395 333.809 104.254C334.16 103.551 334.688 102.461 335.391 100.984C336.164 99.4375 337.008 97.7148 337.922 95.8164C338.836 93.918 339.82 91.9492 340.875 89.9102C341.93 87.8008 342.914 85.832 343.828 84.0039C344.812 82.1055 345.656 80.418 346.359 78.9414C347.133 77.4648 347.73 76.375 348.152 75.6719C348.504 74.9688 348.996 74.0898 349.629 73.0352C350.262 71.9102 350.895 70.8555 351.527 69.8711C352.16 68.8164 352.723 67.9375 353.215 67.2344C353.707 66.4609 353.953 66.0742 353.953 66.0742H356.484C356.977 67.6914 356.906 69.2031 356.273 70.6094C355.641 72.0156 354.867 73.3867 353.953 74.7227C353.109 76.0586 352.371 77.3945 351.738 78.7305C351.176 79.9961 351.176 81.3672 351.738 82.8438C357.785 77.5 362.426 73.5625 365.66 71.0312C368.965 68.5 371.285 67.0586 372.621 66.707C373.957 66.3555 374.59 66.8828 374.52 68.2891C374.449 69.6953 374.133 71.5938 373.57 73.9844C373.078 76.375 372.551 79.1172 371.988 82.2109C371.496 85.2344 371.461 88.1875 371.883 91.0703H373.148C373.57 90.7891 374.273 90.2617 375.258 89.4883C376.242 88.7148 377.297 87.8711 378.422 86.957C379.617 86.043 380.707 85.1992 381.691 84.4258C382.746 83.6523 383.484 83.125 383.906 82.8438C384.68 82.2109 385.805 81.332 387.281 80.207C388.758 79.082 390.234 77.957 391.711 76.832C393.258 75.6367 394.629 74.6172 395.824 73.7734C397.09 72.8594 397.898 72.2969 398.25 72.0859C398.531 71.875 399.129 71.4531 400.043 70.8203C401.027 70.1172 402.082 69.3789 403.207 68.6055C404.402 67.832 405.527 67.1289 406.582 66.4961C407.637 65.793 408.41 65.2656 408.902 64.9141C409.957 64.2109 410.941 63.8945 411.855 63.9648C412.77 64.0352 413.508 64.3867 414.07 65.0195C414.703 65.582 415.09 66.3906 415.23 67.4453C415.371 68.4297 415.23 69.5547 414.809 70.8203C413.121 73.9844 411.434 77.0781 409.746 80.1016C408.129 83.125 406.617 86.1836 405.211 89.2773C403.875 92.3008 402.75 95.4297 401.836 98.6641C400.992 101.898 400.535 105.344 400.465 109C400.113 109.211 399.727 109.211 399.305 109C398.953 108.789 398.602 108.508 398.25 108.156C397.898 107.805 397.582 107.453 397.301 107.102C397.09 106.75 396.984 106.574 396.984 106.574ZM467.016 128.512C466.805 128.371 466.488 128.02 466.066 127.457C465.574 126.965 465.188 126.438 464.906 125.875C464.625 125.312 464.52 124.82 464.59 124.398C464.59 123.977 464.977 123.766 465.75 123.766C467.227 125.805 469.301 126.578 471.973 126.086C474.645 125.594 477.527 124.363 480.621 122.395C483.715 120.496 486.844 118.07 490.008 115.117C493.242 112.234 496.125 109.352 498.656 106.469C501.258 103.586 503.367 100.984 504.984 98.6641C506.672 96.3438 507.516 94.7969 507.516 94.0234C507.516 93.8125 507.234 93.4961 506.672 93.0742C506.109 92.582 505.441 92.0898 504.668 91.5977C503.965 91.1055 503.297 90.6484 502.664 90.2266C502.031 89.8047 501.645 89.4883 501.504 89.2773C501.715 88.5742 502.383 88.0469 503.508 87.6953C504.633 87.2734 505.898 86.9219 507.305 86.6406C508.711 86.2891 510.082 85.9727 511.418 85.6914C512.824 85.3398 513.879 84.918 514.582 84.4258C518.309 79.0117 521.543 74.1602 524.285 69.8711C527.098 65.5117 529.734 61.2578 532.195 57.1094C534.727 52.8906 537.293 48.5664 539.895 44.1367C542.496 39.707 545.484 34.7148 548.859 29.1602C549.773 27.6133 550.512 27.0859 551.074 27.5781C551.637 28.0703 552.059 29.2656 552.34 31.1641C552.621 33.0625 552.797 35.4883 552.867 38.4414C552.938 41.3242 552.938 44.4531 552.867 47.8281C552.797 51.2031 552.656 54.6484 552.445 58.1641C552.305 61.6797 552.129 64.9141 551.918 67.8672C551.777 70.8203 551.637 73.3867 551.496 75.5664C551.426 77.6758 551.426 79.0469 551.496 79.6797C551.777 83.2656 551.953 86.3945 552.023 89.0664C552.164 91.668 552.516 94.0938 553.078 96.3438C553.641 98.5234 554.59 100.668 555.926 102.777C557.332 104.816 559.441 107.066 562.254 109.527C559.934 110.301 558 110.23 556.453 109.316C554.977 108.473 553.746 107.172 552.762 105.414C551.848 103.586 551.074 101.512 550.441 99.1914C549.879 96.8008 549.316 94.5156 548.754 92.3359C548.262 90.0859 547.664 88.1523 546.961 86.5352C546.328 84.8477 545.449 83.7578 544.324 83.2656C544.254 83.2656 544.043 83.2656 543.691 83.2656C543.41 83.1953 543.059 83.1602 542.637 83.1602C542.285 83.1602 541.934 83.1953 541.582 83.2656C541.23 83.2656 540.984 83.2656 540.844 83.2656C540.211 83.4062 539.016 83.6875 537.258 84.1094C535.57 84.5312 533.707 84.9883 531.668 85.4805C529.629 85.9727 527.66 86.4648 525.762 86.957C523.934 87.4492 522.598 87.8008 521.754 88.0117C519.996 88.5039 518.133 89.6289 516.164 91.3867C514.266 93.1445 512.227 95.2891 510.047 97.8203C507.938 100.281 505.723 102.988 503.402 105.941C501.152 108.895 498.832 111.777 496.441 114.59C494.051 117.402 491.625 120.004 489.164 122.395C486.703 124.785 484.242 126.719 481.781 128.195C479.32 129.672 476.859 130.48 474.398 130.621C471.867 130.832 469.406 130.129 467.016 128.512ZM524.18 82.1055C524.32 82.1758 524.672 82.2109 525.234 82.2109C525.867 82.2109 526.289 82.1758 526.5 82.1055C527.766 81.8945 529.348 81.6484 531.246 81.3672C533.145 81.0859 535.043 80.7695 536.941 80.418C538.84 79.9961 540.598 79.5391 542.215 79.0469C543.832 78.4844 544.957 77.8867 545.59 77.2539C545.59 77.2539 545.695 76.5156 545.906 75.0391C546.117 73.5625 546.363 71.6992 546.645 69.4492C546.926 67.1289 547.207 64.5977 547.488 61.8555C547.84 59.043 548.156 56.3008 548.438 53.6289C548.719 50.957 548.93 48.4961 549.07 46.2461C549.281 43.9258 549.422 42.1328 549.492 40.8672C548.719 40.5156 547.699 41.4297 546.434 43.6094C545.168 45.7188 543.516 48.6367 541.477 52.3633C539.508 56.0898 537.082 60.4492 534.199 65.4414C531.387 70.3633 528.047 75.4961 524.18 80.8398V82.1055ZM566.367 105.414C566.227 105.344 566.156 105.168 566.156 104.887C566.156 104.605 566.227 104.395 566.367 104.254C567.281 102.426 568.301 100.035 569.426 97.082C570.551 94.0586 571.746 90.7891 573.012 87.2734C574.277 83.6875 575.543 79.9961 576.809 76.1992C578.145 72.332 579.445 68.6406 580.711 65.125C582.047 61.5391 583.348 58.2695 584.613 55.3164C585.879 52.3633 587.074 50.0078 588.199 48.25C589.324 46.4219 590.344 45.3672 591.258 45.0859C592.172 44.7344 592.98 45.4023 593.684 47.0898C594.316 48.707 594.492 50.3945 594.211 52.1523C593.93 53.8398 593.367 55.5977 592.523 57.4258C591.75 59.1836 590.801 61.0117 589.676 62.9102C588.621 64.7383 587.637 66.5664 586.723 68.3945C585.809 70.2227 585.07 72.0508 584.508 73.8789C583.945 75.707 583.805 77.5 584.086 79.2578C586.055 78.7656 587.812 77.8164 589.359 76.4102C590.977 75.0039 592.523 73.5273 594 71.9805C595.547 70.3633 597.129 68.8867 598.746 67.5508C600.363 66.2148 602.227 65.3359 604.336 64.9141C607.641 64.2812 610.418 64.457 612.668 65.4414C614.918 66.3555 616.57 67.7969 617.625 69.7656C618.75 71.7344 619.277 74.0898 619.207 76.832C619.137 79.5742 618.434 82.4219 617.098 85.375C615.762 88.3281 613.758 91.2109 611.086 94.0234C608.414 96.8359 605.039 99.332 600.961 101.512C596.883 103.691 592.066 105.379 586.512 106.574C580.957 107.77 574.629 108.191 567.527 107.84C567.387 107.699 567.141 107.312 566.789 106.68C566.508 106.047 566.367 105.625 566.367 105.414ZM575.754 99.5078C575.684 99.7891 575.648 100.387 575.648 101.301C575.648 102.145 575.684 102.707 575.754 102.988C580.465 103.621 585.176 103.27 589.887 101.934C594.668 100.527 598.922 98.3828 602.648 95.5C606.375 92.5469 609.328 88.9609 611.508 84.7422C613.688 80.5234 614.531 75.8828 614.039 70.8203C613.969 70.6797 613.758 70.4688 613.406 70.1875C613.125 69.9062 612.914 69.7305 612.773 69.6602C610.453 69.3086 608.027 69.5195 605.496 70.293C602.965 71.0664 600.434 72.2266 597.902 73.7734C595.371 75.25 592.91 77.043 590.52 79.1523C588.199 81.2617 586.055 83.4766 584.086 85.7969C582.117 88.1172 580.395 90.4727 578.918 92.8633C577.512 95.2539 576.457 97.4688 575.754 99.5078ZM623.426 106.574C623.355 106.434 623.32 106.258 623.32 106.047C623.32 105.766 623.355 105.555 623.426 105.414C623.707 104.852 624.164 103.902 624.797 102.566C625.5 101.16 626.203 99.7188 626.906 98.2422C627.68 96.6953 628.418 95.2539 629.121 93.918C629.824 92.582 630.316 91.6328 630.598 91.0703C630.738 90.8594 631.09 90.2617 631.652 89.2773C632.285 88.293 633.023 87.0977 633.867 85.6914C634.781 84.2148 635.73 82.5977 636.715 80.8398C637.77 79.082 638.789 77.3594 639.773 75.6719C640.828 73.9844 641.777 72.4023 642.621 70.9258C643.535 69.4492 644.273 68.2188 644.836 67.2344C646.242 64.9141 647.859 62.1719 649.688 59.0078C651.586 55.8438 653.52 52.6445 655.488 49.4102C657.457 46.1758 659.391 43.0469 661.289 40.0234C663.258 37 665.051 34.5039 666.668 32.5352C668.285 30.5664 669.656 29.2656 670.781 28.6328C671.906 28 672.68 28.4219 673.102 29.8984V33.2734C672.609 34.0469 671.941 35.0664 671.098 36.332C670.254 37.5273 669.375 38.8281 668.461 40.2344C667.617 41.5703 666.773 42.8711 665.93 44.1367C665.086 45.4023 664.453 46.3867 664.031 47.0898C663.398 48.0742 662.379 49.6563 660.973 51.8359C659.566 54.0156 657.984 56.4766 656.227 59.2188C654.469 61.9609 652.676 64.8438 650.848 67.8672C649.02 70.8203 647.367 73.5977 645.891 76.1992C644.414 78.8008 643.219 81.0508 642.305 82.9492C641.461 84.7773 641.145 85.9375 641.355 86.4297C643.043 85.9375 644.836 85.0586 646.734 83.793C648.703 82.457 650.672 81.0508 652.641 79.5742C654.609 78.0977 656.578 76.6914 658.547 75.3555C660.516 73.9492 662.344 72.8594 664.031 72.0859C665.719 72.2969 667.195 72.9297 668.461 73.9844C669.727 75.0391 670.641 76.375 671.203 77.9922C671.133 78.625 671.062 79.8203 670.992 81.5781C670.992 83.2656 670.992 85.0586 670.992 86.957C670.992 88.8555 670.992 90.6484 670.992 92.3359C671.062 94.0234 671.133 95.1836 671.203 95.8164C671.273 96.5898 671.625 97.5742 672.258 98.7695C672.891 99.8945 673.559 101.055 674.262 102.25C675.035 103.375 675.703 104.359 676.266 105.203C676.898 106.047 677.18 106.504 677.109 106.574C675.703 107.066 674.367 107.102 673.102 106.68C671.836 106.188 670.711 105.449 669.727 104.465C668.812 103.41 668.039 102.25 667.406 100.984C666.844 99.6484 666.492 98.3477 666.352 97.082C666.281 96.4492 666.176 95.2891 666.035 93.6016C665.895 91.8438 665.754 90.0156 665.613 88.1172C665.543 86.2188 665.438 84.4258 665.297 82.7383C665.227 81.0508 665.191 79.8906 665.191 79.2578L662.766 77.9922C662.344 77.7812 661.605 77.957 660.551 78.5195C659.566 79.082 658.406 79.8555 657.07 80.8398C655.734 81.8242 654.328 82.9492 652.852 84.2148C651.375 85.4805 649.969 86.6758 648.633 87.8008C647.367 88.9258 646.277 89.9102 645.363 90.7539C644.449 91.5977 643.887 92.125 643.676 92.3359C643.113 92.8984 642.094 93.918 640.617 95.3945C639.141 96.8008 637.559 98.3477 635.871 100.035C634.254 101.652 632.707 103.199 631.23 104.676C629.824 106.152 628.84 107.207 628.277 107.84C627.293 108.051 626.344 108.156 625.43 108.156C624.586 108.086 623.918 107.559 623.426 106.574ZM681.855 107.84C684.738 98.5586 687.34 91.2109 689.66 85.7969C692.051 80.3125 694.02 76.4805 695.566 74.3008C697.184 72.1211 698.273 71.418 698.836 72.1914C699.398 72.9648 699.328 74.9336 698.625 78.0977C697.992 81.2617 696.586 85.5156 694.406 90.8594C692.297 96.1328 689.309 102.18 685.441 109C684.879 109.211 684.211 109.246 683.438 109.105C682.664 108.965 682.137 108.543 681.855 107.84ZM700.312 57.1094C700.172 56.7578 700.102 56.125 700.102 55.2109C700.102 54.2969 700.172 53.7344 700.312 53.5234C701.93 52.9609 703.16 52.8906 704.004 53.3125C704.848 53.7344 705.375 54.3672 705.586 55.2109C705.797 55.9844 705.762 56.8281 705.48 57.7422C705.27 58.6562 704.883 59.3594 704.32 59.8516C703.758 60.2734 703.09 60.3438 702.316 60.0625C701.613 59.7109 700.945 58.7266 700.312 57.1094ZM748.617 107.84C748.406 105.52 748.582 103.234 749.145 100.984C749.777 98.6641 750.586 96.4141 751.57 94.2344C752.625 91.9844 753.715 89.7695 754.84 87.5898C756.035 85.3398 757.055 83.1602 757.898 81.0508C758.742 78.8711 759.34 76.7617 759.691 74.7227C760.043 72.6133 759.902 70.5391 759.27 68.5C757.512 67.8672 755.473 68.0078 753.152 68.9219C750.902 69.8359 748.512 71.2422 745.98 73.1406C743.449 74.9688 740.812 77.1484 738.07 79.6797C735.398 82.1406 732.762 84.6719 730.16 87.2734C727.629 89.8047 725.203 92.2305 722.883 94.5508C720.562 96.8711 718.453 98.8047 716.555 100.352C714.727 101.828 713.18 102.777 711.914 103.199C710.648 103.551 709.805 103.094 709.383 101.828C709.312 101.758 709.699 100.879 710.543 99.1914C711.457 97.4336 712.547 95.2539 713.812 92.6523C715.148 90.0508 716.59 87.2383 718.137 84.2148C719.754 81.1914 721.266 78.3789 722.672 75.7773C724.078 73.1055 725.309 70.8555 726.363 69.0273C727.418 67.1992 728.086 66.2148 728.367 66.0742C729.844 67.0586 730.582 68.1484 730.582 69.3438C730.652 70.4688 730.477 71.6641 730.055 72.9297C729.633 74.125 729.141 75.3555 728.578 76.6211C728.086 77.8867 728.016 79.1523 728.367 80.418C729.492 79.6445 731.039 78.5898 733.008 77.2539C735.047 75.8477 737.227 74.4062 739.547 72.9297C741.938 71.4531 744.398 70.0117 746.93 68.6055C749.531 67.1992 751.957 66.1094 754.207 65.3359C756.457 64.4922 758.461 64.0352 760.219 63.9648C762.047 63.8945 763.383 64.4219 764.227 65.5469C765.07 66.6719 765.316 68.5352 764.965 71.1367C764.684 73.668 763.594 77.1484 761.695 81.5781C761.484 82.0703 760.957 83.2656 760.113 85.1641C759.34 86.9922 758.461 88.9961 757.477 91.1758C756.562 93.2852 755.684 95.2891 754.84 97.1875C754.066 99.0156 753.574 100.176 753.363 100.668C753.293 100.949 753.188 101.477 753.047 102.25C752.977 102.953 752.871 103.762 752.73 104.676C752.59 105.52 752.379 106.363 752.098 107.207C751.816 107.98 751.465 108.578 751.043 109C750.621 109.422 750.129 109.387 749.566 108.895C749.004 108.332 748.688 107.98 748.617 107.84ZM774.246 106.574C772.559 105.168 771.609 103.094 771.398 100.352C771.258 97.6094 771.645 94.5156 772.559 91.0703C773.543 87.625 774.949 84.0391 776.777 80.3125C778.676 76.5156 780.855 72.9297 783.316 69.5547C785.777 66.1094 788.449 63.0508 791.332 60.3789C794.215 57.6367 797.098 55.6328 799.98 54.3672C802.863 53.0313 805.676 52.5742 808.418 52.9961C811.16 53.3477 813.656 54.9297 815.906 57.7422C817.312 59.5 818.156 61.293 818.438 63.1211C818.719 64.8789 818.684 66.707 818.332 68.6055C817.98 70.4336 817.418 72.332 816.645 74.3008C815.871 76.1992 815.098 78.1328 814.324 80.1016C813.621 82.0703 813.023 84.0742 812.531 86.1133C812.109 88.1523 812.039 90.2266 812.32 92.3359C812.672 95.0078 813.867 96.5898 815.906 97.082C817.945 97.5742 820.371 97.4336 823.184 96.6602C826.066 95.8867 829.09 94.6562 832.254 92.9688C835.418 91.2812 838.336 89.5938 841.008 87.9062C843.75 86.2188 846 84.7422 847.758 83.4766C849.586 82.2109 850.5 81.5781 850.5 81.5781C852.469 81.1562 853.559 81.2969 853.77 82C854.051 82.6328 853.664 83.6172 852.609 84.9531C851.625 86.2188 850.113 87.6953 848.074 89.3828C846.035 91 843.715 92.582 841.113 94.1289C838.512 95.6758 835.734 97.082 832.781 98.3477C829.828 99.6133 826.945 100.492 824.133 100.984C821.32 101.406 818.648 101.371 816.117 100.879C813.656 100.316 811.617 99.0508 810 97.082C809.227 96.2383 808.629 95.3945 808.207 94.5508C807.855 93.707 807.258 92.9688 806.414 92.3359C805.359 93.3203 804.094 94.6211 802.617 96.2383C801.141 97.7852 799.523 99.3672 797.766 100.984C796.078 102.531 794.25 104.008 792.281 105.414C790.383 106.82 788.414 107.875 786.375 108.578C784.336 109.281 782.262 109.527 780.152 109.316C778.113 109.105 776.145 108.191 774.246 106.574ZM775.406 102.988C776.039 105.238 777.445 106.293 779.625 106.152C781.805 105.941 784.336 104.852 787.219 102.883C790.102 100.914 793.09 98.2422 796.184 94.8672C799.277 91.4219 802.055 87.625 804.516 83.4766C806.977 79.2578 808.84 74.8281 810.105 70.1875C811.441 65.5469 811.793 60.9766 811.16 56.4766C809.473 55.1406 807.363 55.1055 804.832 56.3711C802.301 57.5664 799.594 59.5703 796.711 62.3828C793.898 65.125 791.086 68.4297 788.273 72.2969C785.531 76.0938 783.105 79.9609 780.996 83.8984C778.887 87.7656 777.27 91.4219 776.145 94.8672C775.09 98.3125 774.844 101.02 775.406 102.988ZM824.344 149.5C823.711 148.516 823.746 146.969 824.449 144.859C825.082 142.82 826.031 140.676 827.297 138.426C828.492 136.246 829.758 134.172 831.094 132.203C832.359 130.305 833.309 128.934 833.941 128.09C834.504 127.316 835.383 126.156 836.578 124.609C837.703 123.062 839.004 121.305 840.48 119.336C841.957 117.367 843.504 115.293 845.121 113.113C846.809 110.934 848.391 108.895 849.867 106.996C851.344 105.027 852.68 103.27 853.875 101.723C855.07 100.176 855.949 99.0156 856.512 98.2422C857.074 97.6094 857.074 96.625 856.512 95.2891C855.949 93.9531 855.07 92.4062 853.875 90.6484C852.75 88.8203 851.449 86.8516 849.973 84.7422C848.566 82.5625 847.266 80.3828 846.07 78.2031C844.945 75.9531 844.066 73.7383 843.434 71.5586C842.871 69.3789 842.871 67.3398 843.434 65.4414C844.207 64.8789 845.051 65.2305 845.965 66.4961C846.879 67.6914 847.828 69.3789 848.812 71.5586C849.867 73.668 850.957 76.0234 852.082 78.625C853.207 81.1562 854.297 83.4766 855.352 85.5859C856.406 87.625 857.426 89.2422 858.41 90.4375C859.465 91.6328 860.449 91.8789 861.363 91.1758C863.191 89.8398 864.984 88.1523 866.742 86.1133C868.5 84.0039 870.188 81.8242 871.805 79.5742C873.422 77.3242 874.934 75.1445 876.34 73.0352C877.816 70.8555 879.188 68.957 880.453 67.3398C880.945 66.707 881.402 66.2852 881.824 66.0742C882.316 65.793 883.055 65.8281 884.039 66.1797C884.812 66.4609 884.672 67.6914 883.617 69.8711C882.562 72.0508 880.91 74.8633 878.66 78.3086C876.41 81.7539 873.703 85.6914 870.539 90.1211C867.445 94.4805 864.141 99.0508 860.625 103.832C857.18 108.543 853.699 113.254 850.184 117.965C846.738 122.676 843.574 127.035 840.691 131.043C837.738 135.121 835.242 138.672 833.203 141.695C831.094 144.789 829.723 147.039 829.09 148.445C828.809 149.078 828.527 149.711 828.246 150.344C827.895 150.977 827.438 151.504 826.875 151.926C826.734 151.855 826.559 151.715 826.348 151.504C826.066 151.293 825.82 151.047 825.609 150.766C825.328 150.555 825.082 150.309 824.871 150.027C824.59 149.816 824.414 149.641 824.344 149.5Z"
    fill="#999999" />
</svg>