<svg width="480" height="480" viewBox="0 0 480 480" fill="none" xmlns="http://www.w3.org/2000/svg">
<g clip-path="url(#clip0_510_1357)">
<rect width="480" height="480" fill="#9C9EFE"/>
<path d="M370.353 436.705C369.255 437.49 368 438.274 366.902 439.058C365.647 439.842 364.549 440.627 363.295 441.254C362.197 441.882 361.255 442.509 360.157 443.137C360 443.293 359.844 443.293 359.687 443.45C356.079 445.646 352.314 447.686 348.549 449.568C347.451 450.195 346.196 450.823 345.098 451.293C345.098 451.293 344.942 451.45 344.785 451.45C343.53 452.078 342.275 452.705 341.02 453.333C338.51 454.588 335.844 455.686 333.334 456.784C332.079 457.411 330.667 457.882 329.412 458.352C328.157 458.823 326.746 459.45 325.491 459.921C324.236 460.392 322.824 461.019 321.569 461.49C321.569 461.49 321.569 461.49 321.412 461.49C320.157 461.96 318.746 462.431 317.491 462.901C314.667 463.842 311.687 464.784 308.863 465.725C307.922 466.039 306.824 466.352 305.883 466.666C302.902 467.607 299.922 468.391 296.942 469.019C295.844 469.333 294.746 469.49 293.491 469.803C290.667 470.431 287.687 471.058 284.863 471.686C284.236 471.842 283.765 471.842 283.138 471.999C282.196 472.156 281.098 472.313 280.157 472.47C278.746 472.627 277.491 472.941 276.079 473.097C275.451 473.254 274.824 473.254 274.196 473.411C273.412 473.568 272.471 473.725 271.53 473.725C269.02 474.039 266.353 474.352 263.844 474.666C263.059 474.823 262.118 474.823 261.334 474.98H261.177C260.079 475.137 258.981 475.137 257.883 475.293C256.785 475.45 255.687 475.45 254.589 475.45C253.961 475.45 253.177 475.607 252.549 475.607C251.295 475.607 250.197 475.764 249.098 475.764C247.53 475.764 246.118 475.921 244.549 475.921C242.981 475.921 241.569 475.921 240 475.921C238.902 475.921 237.804 475.921 236.706 475.921C170.51 474.98 111.059 446.901 68.5494 402.352C68.5494 402.352 68.5494 402.195 68.3926 402.195C63.6867 397.96 67.7651 375.372 86.7455 361.097C110.589 343.058 167.687 331.764 167.687 331.764C167.687 331.764 189.804 328.156 271.844 345.254C319.844 355.293 356.393 369.882 376.785 409.411C381.02 417.568 385.255 430.117 370.353 436.705Z" fill="white"/>
<path d="M272.314 343.529C302.432 349.647 334.589 356.235 359.373 376.157C367.687 382.902 373.177 392.784 377.726 402.353C379.922 407.059 382.118 411.921 383.844 417.098C384.785 420.549 386.196 424.47 385.412 428.549C385.255 429.647 384.314 431.059 383.53 431.843C379.922 435.451 376 437.647 372.079 440.47C349.02 456.47 322.51 467.765 295.059 473.725C233.883 487.059 167.687 476.706 113.883 444.549C96.0004 433.725 79.5298 420.549 65.4121 405.019C63.8435 403.137 63.8435 400 63.8435 397.961C64.0004 393.255 65.2553 388.706 66.8239 384.47C70.5886 374.745 75.4514 365.019 83.7651 358.274C89.7259 354.196 96.1572 350.745 102.745 347.921C123.451 339.137 145.255 333.019 167.687 330.51C169.569 330.353 169.883 333.019 168 333.333C146.51 337.725 125.177 344.314 105.255 353.255C98.0396 356.863 90.3533 360 84.5494 365.647C79.0592 371.608 75.1376 378.98 72.0004 386.51C69.9612 391.059 68.5494 398.274 69.1768 401.882C79.0592 413.647 90.667 424 103.216 432.941C171.922 480.941 276.236 484.078 349.334 444.078C355.922 440.47 362.353 436.392 368.471 432.157C371.451 430.117 374.589 428.392 376.942 426.039C377.098 425.882 376.942 426.039 376.942 426.196C376.942 426.353 376.785 426.51 376.785 426.51C376.942 424.627 376.314 422.117 375.53 419.608C372.706 410.51 368.157 400.941 363.295 392.627C355.608 380.235 342.589 372.392 329.412 366.117C320.314 361.882 310.745 358.588 301.02 355.451C291.294 352.314 281.412 349.647 271.53 347.294C269.02 346.666 269.804 343.059 272.314 343.529Z" fill="black"/>
<path d="M422.432 533.961H25.7263C25.7263 533.961 49.0989 484.707 59.4518 428.55C66.6675 389.648 72.0008 366.903 92.2361 354.354C106.511 345.569 137.099 336.471 150.275 331.765C159.217 328.628 161.099 331.295 167.53 329.569C167.53 330.354 167.687 330.981 167.687 331.765C167.687 331.765 184.628 382.118 228.707 400.001C264.628 414.589 285.962 404.863 289.256 388.707C291.295 378.354 284.864 361.412 281.569 355.922C279.687 354.354 278.432 352.001 277.805 349.648L276.55 344.471C279.53 343.844 282.354 343.06 285.177 342.118C286.118 341.805 286.903 341.491 287.844 341.177C305.883 345.883 344.471 361.099 361.569 376.785C368.315 383.06 384.315 414.432 394.668 459.922C406.589 511.53 422.432 533.961 422.432 533.961Z" fill="black"/>
<path d="M34.8403 538.071C34.7685 538.071 34.6967 538.071 34.6249 538.071C31.6813 538.062 28.7667 538.052 25.8827 538.04C25.7771 538.04 25.6726 538.036 25.5694 538.027C24.3759 537.928 23.3465 537.269 22.6838 536.354L22.3643 535.841C21.8139 534.796 21.7063 533.53 22.2748 532.393L34.8403 538.071Z" fill="white" stroke="black" stroke-width="12"/>
<path d="M215.216 416.471C161.098 392.157 140.079 348.706 144.157 336.942C144.157 336.942 144.157 336.785 144.314 336.628C147.138 330.824 151.687 326.118 157.334 322.824C160.471 320.942 163.922 319.216 166.745 318.275C209.569 307.608 266.353 325.648 285.49 342.118C292.392 350.432 299.451 358.746 302.118 380.706C305.883 412.393 271.216 441.726 215.216 416.471Z" fill="white"/>
<path d="M214.432 418.196C187.294 405.961 161.883 386.824 147.451 360.314C144.628 354.824 142.118 349.177 141.334 342.745C141.177 340.549 141.02 337.883 142.118 335.687C145.412 329.098 151.373 323.922 157.961 320.785C162.981 318.118 168.471 316.236 173.961 314.51C181.804 313.098 189.647 312.628 197.647 312.785C223.843 313.569 249.883 320.471 273.098 332.549C274.824 333.491 276.549 334.432 278.275 335.53C278.902 335.844 279.373 336.314 280.157 336.157C280.941 336 281.569 336.314 282.196 336.628C284.079 337.726 285.647 339.138 287.373 340.706C291.608 345.883 295.843 351.373 298.667 357.647C301.49 363.922 303.059 370.667 304 377.255C306.51 390.745 301.961 405.804 291.451 415.059C270.118 434.196 238.118 429.02 214.432 418.196ZM215.843 414.902C233.412 422.589 253.49 427.451 272.157 421.491C287.216 416.942 299.608 403.294 300.079 387.294C300.236 377.883 298.039 368 294.275 359.373C292.236 354.04 286.588 347.294 283.765 343.844C282.039 342.432 280.157 341.334 278.588 339.922C278.432 339.608 278.275 339.295 278.118 338.981C277.804 338.196 277.177 338.04 276.706 337.569C275.137 336.628 273.412 335.687 271.687 334.745C258.039 327.687 242.981 323.608 227.922 320.628C210.353 317.334 192.314 316.393 174.588 318.902C172.079 319.216 169.412 318.902 166.902 319.53C165.02 320.314 161.569 321.883 159.373 323.451C153.726 326.745 149.49 331.608 146.51 337.412L146.353 337.569C146.353 337.726 146.196 338.04 146.196 338.196C145.412 344.785 148.549 351.53 151.53 357.647C154.196 362.667 157.334 367.53 160.941 372.236C175.373 390.902 194.667 405.334 215.843 414.902Z" fill="black"/>
<path d="M287.058 385.655C283.764 401.812 262.43 411.537 226.509 396.949C189.175 381.89 173.019 345.969 168.94 335.302C191.058 293.89 175.685 265.184 175.685 265.184C226.666 260.792 271.215 320.4 271.215 320.4L278.117 349.89C278.744 352.4 279.999 354.596 281.881 356.165C285.175 361.969 289.097 375.302 287.058 385.655Z" fill="white"/>
<path d="M168.157 335.773C171.137 331.224 173.019 325.89 174.274 320.714C176.627 309.89 177.412 298.91 177.568 287.93V283.851C177.098 279.773 175.686 275.537 174.117 271.773C172.078 266.753 179.451 263.616 181.804 268.636C182.117 269.263 182.117 270.361 182.117 270.988C182.588 292.322 183.529 319.773 170.039 337.498C169.098 338.439 167.215 337.028 168.157 335.773Z" fill="black"/>
<path d="M272.94 320.086C275.293 321.498 276.078 323.38 276.391 325.263C277.333 329.027 277.019 333.106 277.96 337.027C278.744 340.792 281.097 344.4 281.725 348.321C282.509 352.4 284.862 361.027 285.803 365.263C286.117 366.204 285.489 367.302 284.391 367.459C283.764 367.616 283.293 367.459 282.823 367.145C280.784 365.42 279.842 363.694 278.587 361.498C276.548 357.733 275.136 354.282 273.882 350.047C272.784 346.282 273.254 342.204 272.313 338.282C271.529 334.518 269.333 330.91 268.548 326.988C268.078 325.106 267.921 323.067 269.333 320.714C270.274 319.772 271.842 319.459 272.94 320.086Z" fill="black"/>
<path d="M284.235 361.498C254.274 359.929 229.804 350.518 205.961 308.008C226.039 325.733 249.725 332.478 274.667 335.616L277.961 350.047C278.588 352.557 282.353 359.929 284.235 361.498Z" fill="black"/>
<path d="M282.981 355.694C288.314 365.733 291.451 378.282 288.157 389.419C285.647 397.262 278.432 403.066 270.589 405.262C252.392 410.125 231.373 402.439 215.216 393.811C195.294 382.674 180.549 364.008 171.138 343.615C170.51 342.047 172.706 340.792 173.647 342.361C176.942 348.949 180.706 355.38 184.942 361.184C189.177 367.145 194.04 372.635 199.53 377.498C215.53 391.929 237.177 400.87 258.824 400.87C281.098 400.243 289.569 388.478 284.392 366.831C283.608 363.38 282.353 359.772 280.628 356.792C279.687 355.537 282.04 354.125 282.981 355.694Z" fill="black"/>
<path d="M343.686 167.303C346.51 180.479 347.921 191.146 340.235 226.283C332.706 261.263 351.059 268.479 307.608 324.479C289.882 347.381 246.902 340.95 212.078 317.263C200.313 309.263 195.294 288.714 186.51 274.126C179.608 262.675 176.47 274.597 167.372 264.714C154.98 251.224 140.078 224.087 147.451 176.087C159.372 98.283 221.019 89.185 266.666 97.8124C312.627 106.597 336.157 132.636 343.686 167.303Z" fill="white"/>
<path d="M175.215 278.675C171.608 272.557 166.902 267.224 162.51 261.577C158.274 255.773 154.823 249.341 152 242.753C133.333 196.949 140.549 132.479 186.353 105.498C205.333 94.5179 228.235 91.8513 249.568 93.5767C295.215 96.8709 337.098 117.89 346.98 166.204C352.313 187.538 345.098 209.498 341.019 230.361C339.137 240.714 340.706 251.381 340.549 262.047C340.392 272.871 337.412 283.694 333.333 293.734C330.823 300.636 326.431 306.753 321.882 312.4C314.353 321.498 306.823 330.753 297.255 337.812C295.059 339.381 291.137 340.165 288.47 340.479C281.098 341.577 273.882 341.89 266.51 341.42C237.647 340.165 206.745 326.204 195.137 298.283C194.666 297.185 196.235 296.4 196.863 297.341C211.921 321.185 239.529 332.949 266.98 334.518C275.451 334.988 284.078 334.832 292.392 333.106C296.47 331.067 300.078 327.459 303.529 324.165C312 315.694 320.627 306.596 326.745 296.243C334.117 282.283 338.196 267.067 336.941 251.224C336.627 244.165 336.47 236.792 337.882 229.734C339.137 222.675 340.706 215.93 341.647 208.714C342.588 201.812 343.059 194.753 343.059 187.851C342.274 167.616 335.686 146.753 322.823 131.067C294.431 95.7728 227.294 86.5179 189.49 110.675C165.647 125.42 154.51 153.028 150.902 179.851C145.412 212.008 146.98 243.694 172.549 267.067L180.078 274.91C183.059 278.361 177.725 282.439 175.215 278.675Z" fill="black"/>
<path d="M193.725 228.793C193.725 228.793 188.862 205.263 165.96 208.087C146.195 210.597 139.293 257.969 184.156 271.146" fill="white"/>
<path d="M182.118 250.596C178.51 248.557 176 245.106 175.843 240.871C176 237.734 176.47 234.126 175.686 230.988C175.216 228.008 172.078 227.224 169.725 227.381C167.216 227.851 165.647 230.988 165.176 233.498C165.176 233.655 165.02 234.126 165.02 234.283C164.863 235.067 163.608 235.067 163.294 234.283C161.255 228.165 165.804 221.42 172.392 222.204C181.647 222.832 182.902 232.557 181.176 239.93C180.235 243.067 181.49 245.89 183.216 248.557L183.529 249.028C184.314 249.969 183.059 251.224 182.118 250.596Z" fill="black"/>
<path d="M307.607 212.164C309.96 223.302 314.352 233.655 319.843 243.38C324.705 255.302 312.156 266.596 301.019 266.125C299.764 266.125 299.607 264.4 300.705 264.086C307.764 261.89 314.195 257.184 315.294 249.968C315.764 247.772 315.137 245.89 314.039 244.008C308.862 234.282 305.725 223.145 306.509 212.164C306.509 211.38 307.607 211.38 307.607 212.164Z" fill="black"/>
<path d="M192.941 228.95C189.333 219.695 181.49 210.91 170.98 211.067C170.039 210.91 168.47 211.224 167.529 211.224C164.863 211.381 162.666 212.322 160.627 214.205C150.588 224.244 152.314 241.969 160.47 253.106C163.294 257.028 166.902 260.479 170.98 263.303C175.059 266.126 179.608 268.322 184.47 270.205C185.568 270.518 185.098 272.244 184 272.087C173.49 269.891 163.451 264.714 156.549 256.087C145.882 243.224 143.686 221.734 156.392 209.185C159.215 206.675 163.137 204.793 167.059 204.793C168.314 204.793 170.196 204.479 171.451 204.793C178.039 205.106 184.314 208.401 188.392 213.577C192 217.969 194.039 223.303 194.666 228.636C194.666 229.577 193.255 229.891 192.941 228.95Z" fill="black"/>
<path d="M292.078 280.784C292.234 283.294 290.352 287.686 286.901 290.823C269.176 280 261.176 285.647 261.176 285.647C254.901 276.078 256.313 263.058 271.529 272.941C282.038 279.843 288.627 280.941 292.078 280.784Z" fill="black"/>
<path d="M286.744 290.98C282.98 294.274 277.333 296.313 269.646 293.176C266.038 291.764 263.215 288.941 261.019 285.804C261.176 285.804 269.019 280.156 286.744 290.98Z" fill="white"/>
<path d="M295.058 280.313C295.058 280.313 288.47 283.921 271.529 273.097C251.293 260.078 255.372 287.372 269.646 293.176C284.548 299.293 292.235 285.96 292.078 280.941" stroke="black" stroke-width="3" stroke-miterlimit="10" stroke-linecap="round" stroke-linejoin="round"/>
<path d="M261.177 285.804C261.177 285.804 269.176 280.156 286.902 290.98" stroke="black" stroke-width="3" stroke-miterlimit="10" stroke-linecap="round" stroke-linejoin="round"/>
<path d="M249.098 227.765C245.334 227.608 242.51 224.471 242.824 220.706L242.981 216.314C243.138 212.549 246.275 209.726 250.04 210.039C253.804 210.196 256.628 213.334 256.314 217.098L256.157 221.49C256 225.098 252.863 227.922 249.098 227.765Z" fill="black"/>
<path d="M315.137 230.117C311.686 229.961 309.019 226.98 309.176 223.529L309.333 219.451C309.49 216 312.47 213.333 315.921 213.49C319.372 213.647 322.039 216.627 321.882 220.078L321.725 224.157C321.568 227.608 318.588 230.274 315.137 230.117Z" fill="black"/>
<path d="M263.216 219.294C258.04 215.843 252.393 213.49 246.118 214.745C244.079 215.058 242.04 215.686 240.785 217.098C240.314 217.725 239.216 217.568 239.216 216.627C239.373 213.49 242.04 211.451 244.549 210.196C249.412 207.686 256.157 208.156 260.549 211.451C262.118 212.392 267.451 218.196 264.628 219.451C264 219.764 263.687 219.607 263.216 219.294Z" fill="black"/>
<path d="M308.079 220.079C308.079 213.49 316.236 211.137 321.255 213.49C324.079 214.745 326.118 217.255 326.902 220.236C327.216 221.177 325.804 221.961 325.177 221.177C322.51 218.039 317.961 216.471 314.353 218.353C313.255 218.981 313.098 219.451 312.785 220.079C312.785 223.216 308.236 223.059 308.079 220.079Z" fill="black"/>
<path d="M270.745 193.412C274.04 194.51 277.334 191.529 276.706 187.922C276.392 186.039 275.608 184.157 274.04 182.745C269.334 178.51 249.883 174.745 238.118 180.235C227.765 185.255 255.687 188.392 270.745 193.412Z" fill="black"/>
<path d="M317.648 195.921C314.981 196.862 312.158 194.039 312.628 190.745C312.785 189.019 313.413 187.294 314.668 186.039C318.432 182.274 331.295 179.294 339.452 185.098C346.511 189.96 329.883 191.372 317.648 195.921Z" fill="black"/>
<path d="M269.177 85.9612C198.903 79.2161 175.53 102.746 166.275 111.059C153.255 122.51 133.491 167.844 134.275 193.726C135.216 229.804 164.079 267.922 165.334 269.804C171.765 279.373 178.354 285.177 180.079 287.216C179.138 283.765 177.569 271.373 178.981 269.177C139.765 254.118 146.824 210.353 165.961 207.844C186.04 205.334 192.314 223.216 193.412 227.608C193.412 227.608 193.412 228.079 193.569 228.863C193.726 228.863 193.883 229.02 194.04 229.02C200.942 231.373 207.373 224.471 205.02 217.726C201.412 207.844 197.334 196.393 196.706 189.02C195.765 167.687 204.393 143.373 267.922 146.824C276.079 147.295 283.138 148.549 290.04 149.961C293.491 150.902 302.746 154.51 299.608 163.451C296.628 172.079 290.51 165.02 288.785 165.804C287.844 166.275 293.804 174.275 302.589 172.706C309.804 171.451 315.608 164.079 313.099 154.353C315.608 154.667 318.275 154.981 320.942 155.295C337.883 156.549 353.099 143.373 352.628 126.432C352.157 109.177 336.001 92.3926 269.177 85.9612Z" fill="black"/>
<path d="M180.55 287.844C180.55 287.687 180.393 287.53 180.08 287.06C180.393 288.001 180.55 288.314 180.55 287.844Z" fill="black"/>
<path d="M274.04 247.059C274.04 247.059 259.294 256.314 242.667 256.157C226.04 256 224 242.981 223.844 235.922C223.844 235.922 226.04 246.118 236.079 249.883C245.961 253.647 274.04 247.059 274.04 247.059Z" fill="black"/>
<path d="M321.411 245.333C321.411 245.333 325.019 249.725 329.881 252.862C333.176 255.059 337.568 252.706 337.568 248.784C337.568 248.784 328.47 249.255 321.411 245.333Z" fill="black"/>
<path d="M279.529 205.177C271.058 204.392 249.725 202.667 241.568 201.883L235.293 201.412C230.117 201.098 226.038 205.49 225.097 210.51C224.784 212.079 224.784 214.745 224.784 216.314V222.745C224.784 226.667 224.627 230.745 226.038 234.51C228.548 243.294 236.548 250.353 245.96 249.255C246.901 249.098 252.705 248.471 253.803 248.314L266.509 246.902C270.587 246.588 274.352 245.49 277.96 243.294C282.98 240.314 287.842 235.765 287.529 229.334L287.842 223.059C288.156 215.216 290.352 205.961 279.529 205.177ZM279.999 200C287.372 200.628 292.391 208.314 291.921 215.373C291.921 216.314 291.607 222.275 291.45 223.373C291.45 224.628 291.136 230.275 290.98 231.373C290.195 242.039 278.274 249.569 268.548 250.981C263.529 251.608 253.019 253.02 247.999 253.647C246.744 253.804 245.019 253.961 243.764 254.118C243.136 254.118 241.725 253.961 241.097 253.961C227.764 252.235 219.293 238.588 219.607 225.883C219.607 223.843 219.607 218.51 219.607 216.314C219.607 215.216 219.607 212.392 219.764 211.294C220.235 205.804 223.215 200.471 228.235 197.49C230.431 196.235 233.097 195.608 235.764 195.765L242.195 196.392C250.038 197.334 271.685 199.373 279.999 200Z" fill="black"/>
<path d="M316.392 202.51C319.843 202.039 336.784 200.157 339.921 199.843C340.706 199.843 342.745 199.529 343.372 199.529C350.117 198.588 353.255 205.961 353.882 211.451C354.196 216.313 353.882 221.019 354.039 225.725C354.039 229.019 353.725 232.313 352.941 235.451C350.902 243.921 344.941 252.862 335.059 250.039C332.706 249.568 328 248.941 325.804 248.47L323.451 248C318.902 247.215 315.137 244.078 312.627 240.627C307.921 235.137 308.862 227.764 308.392 221.176C307.764 214.588 307.921 204.392 316.392 202.51ZM317.019 207.059C312.157 209.255 313.411 216.627 313.411 221.019L313.725 230.431C313.882 236.392 318.588 242.353 324.235 243.921C325.647 244.235 329.568 245.019 331.137 245.333L335.686 246.274C346.98 249.882 351.372 234.196 351.215 225.568C350.745 218.353 352.941 209.725 347.764 203.921C346.509 202.666 345.255 202.353 343.843 202.666C343.059 202.823 341.019 203.137 340.392 203.294C337.255 203.921 320.313 206.588 317.019 207.059Z" fill="black"/>
<path d="M222.117 217.098C220.862 219.922 219.764 219.608 217.568 219.608L213.019 219.451C207.215 219.137 200.784 218.667 194.98 217.882C191.843 217.412 188.549 216.941 185.411 216.157C184.156 215.843 183.372 214.588 183.686 213.333C184 212.235 184.941 211.451 186.039 211.608L195.137 212.078L204.235 212.392C207.215 212.549 214.902 212.706 217.882 212.863C219.451 212.863 220.862 213.02 222.431 212.549C223.058 212.392 223.686 212.706 223.843 213.333C224 213.647 223.843 213.804 223.843 214.118L222.117 217.098Z" fill="black"/>
<path d="M288.941 213.804C294.588 210.667 309.49 206.275 312.313 214.746C313.568 216.942 310.274 218.981 308.862 216.785C308.862 217.099 308.078 216.785 307.764 216.785C301.804 216.314 295.686 217.255 289.725 217.726C287.215 218.04 286.745 214.746 288.941 213.804Z" fill="black"/>
</g>
<defs>
<clipPath id="clip0_510_1357">
<rect width="480" height="480" fill="white"/>
</clipPath>
</defs>
</svg>
