<svg width="118" height="27" viewBox="0 0 118 27" fill="none" xmlns="http://www.w3.org/2000/svg">
<path d="M5.856 15.312L6.384 15.912C5.984 16.536 5.496 17.024 4.92 17.376C4.36 17.728 3.792 17.904 3.216 17.904C2.64 17.904 2.184 17.744 1.848 17.424C1.512 17.088 1.344 16.632 1.344 16.056C1.344 14.712 1.848 12.856 2.856 10.488C2.04 10.616 1.224 10.808 0.408003 11.064L0.240003 10.128L0.216003 10.104C1.016 9.768 2.064 9.496 3.36 9.288C3.488 9.048 3.776 8.464 4.224 7.536C5.12 5.696 5.76 4.504 6.144 3.96L7.176 4.368C7.016 4.72 6.736 5.312 6.336 6.144C5.936 6.96 5.488 7.888 4.992 8.928C5.712 8.88 6.28 8.856 6.696 8.856C7.112 8.856 7.432 8.92 7.656 9.048V10.08C7.432 10.032 7.104 10.008 6.672 10.008C6.256 10.008 5.504 10.08 4.416 10.224C3.472 12.336 3 13.872 3 14.832C3 15.2 3.112 15.504 3.336 15.744C3.576 15.984 3.888 16.104 4.272 16.104C4.672 16.104 5.2 15.84 5.856 15.312Z" fill="white"/>
<path d="M17.4259 16.248L17.9779 16.704C17.3059 17.824 16.4339 18.384 15.3619 18.384C14.4339 18.384 13.9699 17.928 13.9699 17.016C13.9699 16.488 14.1939 15.648 14.6419 14.496C15.1059 13.328 15.3379 12.56 15.3379 12.192C15.3379 11.728 15.0419 11.496 14.4499 11.496C13.8579 11.496 13.0499 12.136 12.0259 13.416C11.0179 14.68 10.1699 16.152 9.48188 17.832L8.06588 17.328C8.89788 13.152 11.0739 7.56 14.5939 0.552002L15.7699 0.936003C13.9939 4.488 12.7219 7.312 11.9539 9.408C11.1539 11.584 10.5539 13.384 10.1539 14.808C11.3859 12.776 12.4419 11.368 13.3219 10.584C14.2179 9.8 14.9939 9.408 15.6499 9.408C16.8339 9.408 17.4259 9.832 17.4259 10.68C17.4259 11.208 17.1299 12.152 16.5379 13.512C15.9459 14.872 15.6499 15.776 15.6499 16.224C15.6499 16.672 15.8659 16.896 16.2979 16.896C16.5219 16.896 16.8979 16.68 17.4259 16.248Z" fill="white"/>
<path d="M23.4407 7.824C22.5447 7.824 22.0967 7.464 22.0967 6.744C22.0967 6.344 22.2087 6.008 22.4327 5.736C22.6567 5.464 22.9447 5.328 23.2967 5.328C23.6487 5.328 23.9367 5.432 24.1607 5.64C24.3847 5.848 24.4967 6.12 24.4967 6.456C24.4967 6.792 24.4007 7.104 24.2087 7.392C24.0167 7.68 23.7607 7.824 23.4407 7.824ZM23.1287 14.904L23.6087 15.312C23.2247 16.048 22.7127 16.68 22.0727 17.208C21.4487 17.72 20.8807 17.976 20.3687 17.976C19.4727 17.976 19.0247 17.352 19.0247 16.104C19.0247 14.552 19.6647 12.528 20.9447 10.032C21.2327 9.488 21.4007 9.168 21.4487 9.072L22.4807 9.696C22.1447 10.304 21.7287 11.272 21.2327 12.6C20.7527 13.928 20.5127 14.784 20.5127 15.168C20.5127 15.536 20.5927 15.8 20.7527 15.96C20.9127 16.12 21.1047 16.2 21.3287 16.2C21.7607 16.2 22.3607 15.768 23.1287 14.904Z" fill="white"/>
<path d="M32.8146 8.616L32.5986 9.552C32.3266 9.52 31.9746 9.504 31.5426 9.504C29.9426 9.504 29.1426 10.032 29.1426 11.088C29.1426 11.312 29.4626 11.968 30.1026 13.056C30.7586 14.144 31.0866 14.872 31.0866 15.24C31.0866 16.104 30.7906 16.784 30.1986 17.28C29.6226 17.76 28.8466 18 27.8706 18C26.5266 18 25.4466 17.256 24.6306 15.768L25.5426 15.12C25.7666 15.296 26.0066 15.512 26.2626 15.768C26.5186 16.008 26.7106 16.176 26.8386 16.272C27.1426 16.544 27.4786 16.68 27.8466 16.68C28.2146 16.68 28.5346 16.552 28.8066 16.296C29.0786 16.024 29.2146 15.696 29.2146 15.312C29.2146 14.912 28.8626 14.176 28.1586 13.104C27.4706 12.032 27.1266 11.28 27.1266 10.848C27.1266 10.064 27.4546 9.464 28.1106 9.048C28.7826 8.632 29.6546 8.424 30.7266 8.424C31.8146 8.424 32.5106 8.488 32.8146 8.616Z" fill="white"/>
<path d="M37.8079 7.824C36.9119 7.824 36.4639 7.464 36.4639 6.744C36.4639 6.344 36.5759 6.008 36.7999 5.736C37.0239 5.464 37.3119 5.328 37.6639 5.328C38.0159 5.328 38.3039 5.432 38.5279 5.64C38.7519 5.848 38.8639 6.12 38.8639 6.456C38.8639 6.792 38.7679 7.104 38.5759 7.392C38.3839 7.68 38.1279 7.824 37.8079 7.824ZM37.4959 14.904L37.9759 15.312C37.5919 16.048 37.0799 16.68 36.4399 17.208C35.8159 17.72 35.2479 17.976 34.7359 17.976C33.8399 17.976 33.3919 17.352 33.3919 16.104C33.3919 14.552 34.0319 12.528 35.3119 10.032C35.5999 9.488 35.7679 9.168 35.8159 9.072L36.8479 9.696C36.5119 10.304 36.0959 11.272 35.5999 12.6C35.1199 13.928 34.8799 14.784 34.8799 15.168C34.8799 15.536 34.9599 15.8 35.1199 15.96C35.2799 16.12 35.4719 16.2 35.6959 16.2C36.1279 16.2 36.7279 15.768 37.4959 14.904Z" fill="white"/>
<path d="M47.1818 8.616L46.9658 9.552C46.6938 9.52 46.3418 9.504 45.9098 9.504C44.3098 9.504 43.5098 10.032 43.5098 11.088C43.5098 11.312 43.8298 11.968 44.4698 13.056C45.1258 14.144 45.4538 14.872 45.4538 15.24C45.4538 16.104 45.1578 16.784 44.5658 17.28C43.9898 17.76 43.2138 18 42.2378 18C40.8938 18 39.8138 17.256 38.9978 15.768L39.9098 15.12C40.1338 15.296 40.3738 15.512 40.6298 15.768C40.8858 16.008 41.0778 16.176 41.2058 16.272C41.5098 16.544 41.8458 16.68 42.2138 16.68C42.5818 16.68 42.9018 16.552 43.1738 16.296C43.4458 16.024 43.5818 15.696 43.5818 15.312C43.5818 14.912 43.2298 14.176 42.5258 13.104C41.8378 12.032 41.4938 11.28 41.4938 10.848C41.4938 10.064 41.8218 9.464 42.4778 9.048C43.1498 8.632 44.0218 8.424 45.0938 8.424C46.1818 8.424 46.8778 8.488 47.1818 8.616Z" fill="white"/>
<path d="M57.5751 15.576L58.1271 15.984C57.9031 16.464 57.4871 16.92 56.8791 17.352C56.2871 17.784 55.7431 18 55.2471 18C54.3031 18 53.8311 17.504 53.8311 16.512C53.8311 16.048 53.9511 15.496 54.1911 14.856L53.3031 15.768C52.4391 16.648 51.6871 17.24 51.0471 17.544C50.4231 17.848 49.8071 18 49.1991 18C48.5911 18 48.1271 17.832 47.8071 17.496C47.5031 17.144 47.3511 16.664 47.3511 16.056C47.3511 14.936 47.7831 13.832 48.6471 12.744C49.5111 11.64 50.6151 10.744 51.9591 10.056C53.3031 9.368 54.6471 9.016 55.9911 9L56.0391 9.792L55.0311 10.008C53.5751 10.328 52.2871 10.968 51.1671 11.928C50.0631 12.888 49.5111 13.848 49.5111 14.808C49.5111 15.752 49.8951 16.224 50.6631 16.224C51.3831 16.224 52.2711 15.72 53.3271 14.712C54.3831 13.704 55.2631 12.52 55.9671 11.16L56.9751 11.76C55.9831 13.76 55.4871 15.032 55.4871 15.576C55.4871 15.8 55.5591 15.992 55.7031 16.152C55.8631 16.296 56.0151 16.368 56.1591 16.368C56.3191 16.368 56.4231 16.36 56.4711 16.344C56.5191 16.328 56.5671 16.312 56.6151 16.296C56.6631 16.264 56.7191 16.224 56.7831 16.176C56.8631 16.128 56.9271 16.08 56.9751 16.032C57.0391 15.984 57.1351 15.912 57.2631 15.816C57.3911 15.72 57.4951 15.64 57.5751 15.576Z" fill="white"/>
<path d="M62.7531 11.4C63.5211 10.616 64.1931 10.08 64.7691 9.792C65.3611 9.488 65.9131 9.336 66.4251 9.336C66.9531 9.336 67.3851 9.52 67.7211 9.888C68.0731 10.24 68.2491 10.704 68.2491 11.28C68.2491 12.768 67.6251 14.336 66.3771 15.984C65.1291 17.616 63.7851 18.432 62.3451 18.432C61.9131 18.432 61.5051 18.352 61.1211 18.192L61.6971 17.136C61.9531 17.2 62.1531 17.232 62.2971 17.232C63.2731 17.232 64.1611 16.688 64.9611 15.6C65.7611 14.512 66.1611 13.44 66.1611 12.384C66.1611 12.048 66.0491 11.776 65.8251 11.568C65.6171 11.344 65.3451 11.232 65.0091 11.232C64.2731 11.232 63.4091 11.824 62.4171 13.008C61.4411 14.192 60.5851 15.736 59.8491 17.64L58.3851 17.04C58.8651 14.592 59.8251 11.608 61.2651 8.088C62.7051 4.568 63.9051 2.08 64.8651 0.624002L66.0891 1.056C65.0331 3.024 63.9051 5.464 62.7051 8.376C61.5211 11.288 60.8251 13.264 60.6171 14.304C61.2731 13.152 61.9851 12.184 62.7531 11.4Z" fill="white"/>
<path d="M78.129 16.248L78.681 16.704C78.009 17.824 77.137 18.384 76.065 18.384C75.137 18.384 74.673 17.928 74.673 17.016C74.673 16.488 74.897 15.648 75.345 14.496C75.809 13.328 76.041 12.56 76.041 12.192C76.041 11.728 75.745 11.496 75.153 11.496C74.561 11.496 73.753 12.136 72.729 13.416C71.721 14.68 70.873 16.152 70.185 17.832L68.769 17.328C69.601 13.152 71.777 7.56 75.297 0.552002L76.473 0.936003C74.697 4.488 73.425 7.312 72.657 9.408C71.857 11.584 71.257 13.384 70.857 14.808C72.089 12.776 73.145 11.368 74.025 10.584C74.921 9.8 75.697 9.408 76.353 9.408C77.537 9.408 78.129 9.832 78.129 10.68C78.129 11.208 77.833 12.152 77.241 13.512C76.649 14.872 76.353 15.776 76.353 16.224C76.353 16.672 76.569 16.896 77.001 16.896C77.225 16.896 77.601 16.68 78.129 16.248Z" fill="white"/>
<path d="M84.1438 7.824C83.2478 7.824 82.7998 7.464 82.7998 6.744C82.7998 6.344 82.9118 6.008 83.1358 5.736C83.3598 5.464 83.6478 5.328 83.9998 5.328C84.3518 5.328 84.6398 5.432 84.8638 5.64C85.0878 5.848 85.1998 6.12 85.1998 6.456C85.1998 6.792 85.1038 7.104 84.9118 7.392C84.7198 7.68 84.4638 7.824 84.1438 7.824ZM83.8318 14.904L84.3118 15.312C83.9278 16.048 83.4158 16.68 82.7758 17.208C82.1518 17.72 81.5838 17.976 81.0718 17.976C80.1758 17.976 79.7278 17.352 79.7278 16.104C79.7278 14.552 80.3678 12.528 81.6478 10.032C81.9358 9.488 82.1038 9.168 82.1518 9.072L83.1838 9.696C82.8478 10.304 82.4318 11.272 81.9358 12.6C81.4558 13.928 81.2158 14.784 81.2158 15.168C81.2158 15.536 81.2958 15.8 81.4558 15.96C81.6158 16.12 81.8078 16.2 82.0318 16.2C82.4638 16.2 83.0638 15.768 83.8318 14.904Z" fill="white"/>
<path d="M95.7257 15.096L96.2297 15.48C95.8777 16.184 95.3897 16.776 94.7657 17.256C94.1577 17.736 93.6057 17.976 93.1097 17.976C92.6137 17.976 92.2217 17.832 91.9337 17.544C91.6457 17.256 91.5017 16.896 91.5017 16.464C91.5017 16.032 91.7737 15.28 92.3177 14.208C92.8777 13.12 93.1577 12.32 93.1577 11.808C93.1577 11.584 93.0617 11.384 92.8697 11.208C92.6937 11.016 92.4777 10.92 92.2217 10.92C91.4057 10.92 90.5817 11.544 89.7497 12.792C88.9177 14.024 87.9897 15.808 86.9657 18.144L85.5257 17.64C85.8297 15.784 86.2617 13.976 86.8217 12.216C87.3977 10.44 87.9257 9.168 88.4057 8.4L89.3897 8.712C88.9417 9.848 88.3737 11.808 87.6857 14.592C89.8937 10.816 91.9257 8.928 93.7817 8.928C94.1817 8.928 94.5097 9.064 94.7657 9.336C95.0377 9.608 95.1737 9.928 95.1737 10.296C95.1737 10.664 95.1257 11 95.0297 11.304C94.9337 11.592 94.6297 12.28 94.1177 13.368C93.6217 14.44 93.3737 15.112 93.3737 15.384C93.3737 15.656 93.4537 15.872 93.6137 16.032C93.7737 16.176 93.9257 16.248 94.0697 16.248C94.2137 16.248 94.3337 16.224 94.4297 16.176C94.5257 16.128 94.6297 16.056 94.7417 15.96C94.8697 15.864 94.9817 15.776 95.0777 15.696C95.1737 15.616 95.2857 15.512 95.4137 15.384C95.5577 15.24 95.6617 15.144 95.7257 15.096Z" fill="white"/>
<path d="M107.099 15.576L107.651 15.984C107.427 16.464 107.011 16.92 106.403 17.352C105.811 17.784 105.267 18 104.771 18C103.827 18 103.355 17.504 103.355 16.512C103.355 16.048 103.475 15.496 103.715 14.856L102.826 15.768C101.963 16.648 101.211 17.24 100.571 17.544C99.9465 17.848 99.3305 18 98.7225 18C98.1145 18 97.6505 17.832 97.3305 17.496C97.0265 17.144 96.8745 16.664 96.8745 16.056C96.8745 14.936 97.3065 13.832 98.1705 12.744C99.0345 11.64 100.139 10.744 101.483 10.056C102.827 9.368 104.171 9.016 105.515 9L105.563 9.792L104.555 10.008C103.099 10.328 101.811 10.968 100.691 11.928C99.5865 12.888 99.0345 13.848 99.0345 14.808C99.0345 15.752 99.4185 16.224 100.187 16.224C100.907 16.224 101.795 15.72 102.851 14.712C103.907 13.704 104.787 12.52 105.491 11.16L106.499 11.76C105.507 13.76 105.011 15.032 105.011 15.576C105.011 15.8 105.083 15.992 105.227 16.152C105.387 16.296 105.539 16.368 105.683 16.368C105.843 16.368 105.947 16.36 105.995 16.344C106.043 16.328 106.091 16.312 106.139 16.296C106.187 16.264 106.243 16.224 106.307 16.176C106.387 16.128 106.451 16.08 106.499 16.032C106.563 15.984 106.659 15.912 106.787 15.816C106.915 15.72 107.019 15.64 107.099 15.576Z" fill="white"/>
<path d="M117.917 16.488L117.989 17.112C117.925 17.16 117.181 17.448 115.757 17.976C115.565 19.032 115.317 20.072 115.013 21.096C114.725 22.136 114.429 22.92 114.125 23.448C113.837 23.992 113.493 24.528 113.093 25.056C112.293 26.112 111.213 26.64 109.853 26.64C109.181 26.64 108.645 26.432 108.245 26.016C107.845 25.6 107.645 25.032 107.645 24.312C107.645 21.544 109.965 19.32 114.605 17.64L115.901 13.08C114.525 15.144 113.285 16.416 112.181 16.896C111.637 17.152 111.061 17.28 110.453 17.28C109.861 17.28 109.381 17.088 109.013 16.704C108.661 16.32 108.485 15.76 108.485 15.024C108.485 14.288 108.733 13.264 109.229 11.952C109.741 10.624 110.309 9.512 110.933 8.616L112.109 9.12C112.061 9.168 111.837 9.592 111.437 10.392C110.733 11.848 110.381 12.928 110.381 13.632C110.381 14.336 110.517 14.808 110.789 15.048C111.061 15.288 111.461 15.408 111.989 15.408C112.517 15.408 113.109 15.096 113.765 14.472C114.437 13.832 115.469 12.576 116.861 10.704L117.725 11.208C117.597 11.736 117.309 12.696 116.861 14.088C116.429 15.464 116.133 16.52 115.973 17.256L117.917 16.488ZM114.461 18.36C113.453 18.824 112.565 19.352 111.797 19.944C110.357 21.032 109.637 22.088 109.637 23.112C109.637 23.496 109.749 23.808 109.973 24.048C110.197 24.288 110.477 24.408 110.812 24.408C112.413 24.408 113.629 22.392 114.461 18.36Z" fill="white"/>
</svg>
