<svg width="119" height="30" viewBox="0 0 119 30" fill="none" xmlns="http://www.w3.org/2000/svg">
<path d="M5.856 18.312L6.384 18.912C5.984 19.536 5.496 20.024 4.92 20.376C4.36 20.728 3.792 20.904 3.216 20.904C2.64 20.904 2.184 20.744 1.848 20.424C1.512 20.088 1.344 19.632 1.344 19.056C1.344 17.712 1.848 15.856 2.856 13.488C2.04 13.616 1.224 13.808 0.408003 14.064L0.240003 13.128L0.216003 13.104C1.016 12.768 2.064 12.496 3.36 12.288C3.488 12.048 3.776 11.464 4.224 10.536C5.12 8.696 5.76 7.504 6.144 6.96L7.176 7.368C7.016 7.72 6.736 8.312 6.336 9.144C5.936 9.96 5.488 10.888 4.992 11.928C5.712 11.88 6.28 11.856 6.696 11.856C7.112 11.856 7.432 11.92 7.656 12.048V13.08C7.432 13.032 7.104 13.008 6.672 13.008C6.256 13.008 5.504 13.08 4.416 13.224C3.472 15.336 3 16.872 3 17.832C3 18.2 3.112 18.504 3.336 18.744C3.576 18.984 3.888 19.104 4.272 19.104C4.672 19.104 5.2 18.84 5.856 18.312Z" fill="black"/>
<path d="M17.4259 19.248L17.9779 19.704C17.3059 20.824 16.4339 21.384 15.3619 21.384C14.4339 21.384 13.9699 20.928 13.9699 20.016C13.9699 19.488 14.1939 18.648 14.6419 17.496C15.1059 16.328 15.3379 15.56 15.3379 15.192C15.3379 14.728 15.0419 14.496 14.4499 14.496C13.8579 14.496 13.0499 15.136 12.0259 16.416C11.0179 17.68 10.1699 19.152 9.48188 20.832L8.06588 20.328C8.89788 16.152 11.0739 10.56 14.5939 3.552L15.7699 3.936C13.9939 7.488 12.7219 10.312 11.9539 12.408C11.1539 14.584 10.5539 16.384 10.1539 17.808C11.3859 15.776 12.4419 14.368 13.3219 13.584C14.2179 12.8 14.9939 12.408 15.6499 12.408C16.8339 12.408 17.4259 12.832 17.4259 13.68C17.4259 14.208 17.1299 15.152 16.5379 16.512C15.9459 17.872 15.6499 18.776 15.6499 19.224C15.6499 19.672 15.8659 19.896 16.2979 19.896C16.5219 19.896 16.8979 19.68 17.4259 19.248Z" fill="black"/>
<path d="M23.4407 10.824C22.5447 10.824 22.0967 10.464 22.0967 9.744C22.0967 9.344 22.2087 9.008 22.4327 8.736C22.6567 8.464 22.9447 8.328 23.2967 8.328C23.6487 8.328 23.9367 8.432 24.1607 8.64C24.3847 8.848 24.4967 9.12 24.4967 9.456C24.4967 9.792 24.4007 10.104 24.2087 10.392C24.0167 10.68 23.7607 10.824 23.4407 10.824ZM23.1287 17.904L23.6087 18.312C23.2247 19.048 22.7127 19.68 22.0727 20.208C21.4487 20.72 20.8807 20.976 20.3687 20.976C19.4727 20.976 19.0247 20.352 19.0247 19.104C19.0247 17.552 19.6647 15.528 20.9447 13.032C21.2327 12.488 21.4007 12.168 21.4487 12.072L22.4807 12.696C22.1447 13.304 21.7287 14.272 21.2327 15.6C20.7527 16.928 20.5127 17.784 20.5127 18.168C20.5127 18.536 20.5927 18.8 20.7527 18.96C20.9127 19.12 21.1047 19.2 21.3287 19.2C21.7607 19.2 22.3607 18.768 23.1287 17.904Z" fill="black"/>
<path d="M32.8146 11.616L32.5986 12.552C32.3266 12.52 31.9746 12.504 31.5426 12.504C29.9426 12.504 29.1426 13.032 29.1426 14.088C29.1426 14.312 29.4626 14.968 30.1026 16.056C30.7586 17.144 31.0866 17.872 31.0866 18.24C31.0866 19.104 30.7906 19.784 30.1986 20.28C29.6226 20.76 28.8466 21 27.8706 21C26.5266 21 25.4466 20.256 24.6306 18.768L25.5426 18.12C25.7666 18.296 26.0066 18.512 26.2626 18.768C26.5186 19.008 26.7106 19.176 26.8386 19.272C27.1426 19.544 27.4786 19.68 27.8466 19.68C28.2146 19.68 28.5346 19.552 28.8066 19.296C29.0786 19.024 29.2146 18.696 29.2146 18.312C29.2146 17.912 28.8626 17.176 28.1586 16.104C27.4706 15.032 27.1266 14.28 27.1266 13.848C27.1266 13.064 27.4546 12.464 28.1106 12.048C28.7826 11.632 29.6546 11.424 30.7266 11.424C31.8146 11.424 32.5106 11.488 32.8146 11.616Z" fill="black"/>
<path d="M37.8079 10.824C36.9119 10.824 36.4639 10.464 36.4639 9.744C36.4639 9.344 36.5759 9.008 36.7999 8.736C37.0239 8.464 37.3119 8.328 37.6639 8.328C38.0159 8.328 38.3039 8.432 38.5279 8.64C38.7519 8.848 38.8639 9.12 38.8639 9.456C38.8639 9.792 38.7679 10.104 38.5759 10.392C38.3839 10.68 38.1279 10.824 37.8079 10.824ZM37.4959 17.904L37.9759 18.312C37.5919 19.048 37.0799 19.68 36.4399 20.208C35.8159 20.72 35.2479 20.976 34.7359 20.976C33.8399 20.976 33.3919 20.352 33.3919 19.104C33.3919 17.552 34.0319 15.528 35.3119 13.032C35.5999 12.488 35.7679 12.168 35.8159 12.072L36.8479 12.696C36.5119 13.304 36.0959 14.272 35.5999 15.6C35.1199 16.928 34.8799 17.784 34.8799 18.168C34.8799 18.536 34.9599 18.8 35.1199 18.96C35.2799 19.12 35.4719 19.2 35.6959 19.2C36.1279 19.2 36.7279 18.768 37.4959 17.904Z" fill="black"/>
<path d="M47.1818 11.616L46.9658 12.552C46.6938 12.52 46.3418 12.504 45.9098 12.504C44.3098 12.504 43.5098 13.032 43.5098 14.088C43.5098 14.312 43.8298 14.968 44.4698 16.056C45.1258 17.144 45.4538 17.872 45.4538 18.24C45.4538 19.104 45.1578 19.784 44.5658 20.28C43.9898 20.76 43.2138 21 42.2378 21C40.8938 21 39.8138 20.256 38.9978 18.768L39.9098 18.12C40.1338 18.296 40.3738 18.512 40.6298 18.768C40.8858 19.008 41.0778 19.176 41.2058 19.272C41.5098 19.544 41.8458 19.68 42.2138 19.68C42.5818 19.68 42.9018 19.552 43.1738 19.296C43.4458 19.024 43.5818 18.696 43.5818 18.312C43.5818 17.912 43.2298 17.176 42.5258 16.104C41.8378 15.032 41.4938 14.28 41.4938 13.848C41.4938 13.064 41.8218 12.464 42.4778 12.048C43.1498 11.632 44.0218 11.424 45.0938 11.424C46.1818 11.424 46.8778 11.488 47.1818 11.616Z" fill="black"/>
<path d="M57.5751 18.576L58.1271 18.984C57.9031 19.464 57.4871 19.92 56.8791 20.352C56.2871 20.784 55.7431 21 55.2471 21C54.3031 21 53.8311 20.504 53.8311 19.512C53.8311 19.048 53.9511 18.496 54.1911 17.856L53.3031 18.768C52.4391 19.648 51.6871 20.24 51.0471 20.544C50.4231 20.848 49.8071 21 49.1991 21C48.5911 21 48.1271 20.832 47.8071 20.496C47.5031 20.144 47.3511 19.664 47.3511 19.056C47.3511 17.936 47.7831 16.832 48.6471 15.744C49.5111 14.64 50.6151 13.744 51.9591 13.056C53.3031 12.368 54.6471 12.016 55.9911 12L56.0391 12.792L55.0311 13.008C53.5751 13.328 52.2871 13.968 51.1671 14.928C50.0631 15.888 49.5111 16.848 49.5111 17.808C49.5111 18.752 49.8951 19.224 50.6631 19.224C51.3831 19.224 52.2711 18.72 53.3271 17.712C54.3831 16.704 55.2631 15.52 55.9671 14.16L56.9751 14.76C55.9831 16.76 55.4871 18.032 55.4871 18.576C55.4871 18.8 55.5591 18.992 55.7031 19.152C55.8631 19.296 56.0151 19.368 56.1591 19.368C56.3191 19.368 56.4231 19.36 56.4711 19.344C56.5191 19.328 56.5671 19.312 56.6151 19.296C56.6631 19.264 56.7191 19.224 56.7831 19.176C56.8631 19.128 56.9271 19.08 56.9751 19.032C57.0391 18.984 57.1351 18.912 57.2631 18.816C57.3911 18.72 57.4951 18.64 57.5751 18.576Z" fill="black"/>
<path d="M62.7531 14.4C63.5211 13.616 64.1931 13.08 64.7691 12.792C65.3611 12.488 65.9131 12.336 66.4251 12.336C66.9531 12.336 67.3851 12.52 67.7211 12.888C68.0731 13.24 68.2491 13.704 68.2491 14.28C68.2491 15.768 67.6251 17.336 66.3771 18.984C65.1291 20.616 63.7851 21.432 62.3451 21.432C61.9131 21.432 61.5051 21.352 61.1211 21.192L61.6971 20.136C61.9531 20.2 62.1531 20.232 62.2971 20.232C63.2731 20.232 64.1611 19.688 64.9611 18.6C65.7611 17.512 66.1611 16.44 66.1611 15.384C66.1611 15.048 66.0491 14.776 65.8251 14.568C65.6171 14.344 65.3451 14.232 65.0091 14.232C64.2731 14.232 63.4091 14.824 62.4171 16.008C61.4411 17.192 60.5851 18.736 59.8491 20.64L58.3851 20.04C58.8651 17.592 59.8251 14.608 61.2651 11.088C62.7051 7.568 63.9051 5.08 64.8651 3.624L66.0891 4.056C65.0331 6.024 63.9051 8.464 62.7051 11.376C61.5211 14.288 60.8251 16.264 60.6171 17.304C61.2731 16.152 61.9851 15.184 62.7531 14.4Z" fill="black"/>
<path d="M78.129 19.248L78.681 19.704C78.009 20.824 77.137 21.384 76.065 21.384C75.137 21.384 74.673 20.928 74.673 20.016C74.673 19.488 74.897 18.648 75.345 17.496C75.809 16.328 76.041 15.56 76.041 15.192C76.041 14.728 75.745 14.496 75.153 14.496C74.561 14.496 73.753 15.136 72.729 16.416C71.721 17.68 70.873 19.152 70.185 20.832L68.769 20.328C69.601 16.152 71.777 10.56 75.297 3.552L76.473 3.936C74.697 7.488 73.425 10.312 72.657 12.408C71.857 14.584 71.257 16.384 70.857 17.808C72.089 15.776 73.145 14.368 74.025 13.584C74.921 12.8 75.697 12.408 76.353 12.408C77.537 12.408 78.129 12.832 78.129 13.68C78.129 14.208 77.833 15.152 77.241 16.512C76.649 17.872 76.353 18.776 76.353 19.224C76.353 19.672 76.569 19.896 77.001 19.896C77.225 19.896 77.601 19.68 78.129 19.248Z" fill="black"/>
<path d="M84.1438 10.824C83.2478 10.824 82.7998 10.464 82.7998 9.744C82.7998 9.344 82.9118 9.008 83.1358 8.736C83.3598 8.464 83.6478 8.328 83.9998 8.328C84.3518 8.328 84.6398 8.432 84.8638 8.64C85.0878 8.848 85.1998 9.12 85.1998 9.456C85.1998 9.792 85.1038 10.104 84.9118 10.392C84.7198 10.68 84.4638 10.824 84.1438 10.824ZM83.8318 17.904L84.3118 18.312C83.9278 19.048 83.4158 19.68 82.7758 20.208C82.1518 20.72 81.5838 20.976 81.0718 20.976C80.1758 20.976 79.7278 20.352 79.7278 19.104C79.7278 17.552 80.3678 15.528 81.6478 13.032C81.9358 12.488 82.1038 12.168 82.1518 12.072L83.1838 12.696C82.8478 13.304 82.4318 14.272 81.9358 15.6C81.4558 16.928 81.2158 17.784 81.2158 18.168C81.2158 18.536 81.2958 18.8 81.4558 18.96C81.6158 19.12 81.8078 19.2 82.0318 19.2C82.4638 19.2 83.0638 18.768 83.8318 17.904Z" fill="black"/>
<path d="M95.7257 18.096L96.2297 18.48C95.8777 19.184 95.3897 19.776 94.7657 20.256C94.1577 20.736 93.6057 20.976 93.1097 20.976C92.6137 20.976 92.2217 20.832 91.9337 20.544C91.6457 20.256 91.5017 19.896 91.5017 19.464C91.5017 19.032 91.7737 18.28 92.3177 17.208C92.8777 16.12 93.1577 15.32 93.1577 14.808C93.1577 14.584 93.0617 14.384 92.8697 14.208C92.6937 14.016 92.4777 13.92 92.2217 13.92C91.4057 13.92 90.5817 14.544 89.7497 15.792C88.9177 17.024 87.9897 18.808 86.9657 21.144L85.5257 20.64C85.8297 18.784 86.2617 16.976 86.8217 15.216C87.3977 13.44 87.9257 12.168 88.4057 11.4L89.3897 11.712C88.9417 12.848 88.3737 14.808 87.6857 17.592C89.8937 13.816 91.9257 11.928 93.7817 11.928C94.1817 11.928 94.5097 12.064 94.7657 12.336C95.0377 12.608 95.1737 12.928 95.1737 13.296C95.1737 13.664 95.1257 14 95.0297 14.304C94.9337 14.592 94.6297 15.28 94.1177 16.368C93.6217 17.44 93.3737 18.112 93.3737 18.384C93.3737 18.656 93.4537 18.872 93.6137 19.032C93.7737 19.176 93.9257 19.248 94.0697 19.248C94.2137 19.248 94.3337 19.224 94.4297 19.176C94.5257 19.128 94.6297 19.056 94.7417 18.96C94.8697 18.864 94.9817 18.776 95.0777 18.696C95.1737 18.616 95.2857 18.512 95.4137 18.384C95.5577 18.24 95.6617 18.144 95.7257 18.096Z" fill="black"/>
<path d="M107.099 18.576L107.651 18.984C107.427 19.464 107.011 19.92 106.403 20.352C105.811 20.784 105.267 21 104.771 21C103.827 21 103.355 20.504 103.355 19.512C103.355 19.048 103.475 18.496 103.715 17.856L102.826 18.768C101.963 19.648 101.211 20.24 100.571 20.544C99.9465 20.848 99.3305 21 98.7225 21C98.1145 21 97.6505 20.832 97.3305 20.496C97.0265 20.144 96.8745 19.664 96.8745 19.056C96.8745 17.936 97.3065 16.832 98.1705 15.744C99.0345 14.64 100.139 13.744 101.483 13.056C102.827 12.368 104.171 12.016 105.515 12L105.563 12.792L104.555 13.008C103.099 13.328 101.811 13.968 100.691 14.928C99.5865 15.888 99.0345 16.848 99.0345 17.808C99.0345 18.752 99.4185 19.224 100.187 19.224C100.907 19.224 101.795 18.72 102.851 17.712C103.907 16.704 104.787 15.52 105.491 14.16L106.499 14.76C105.507 16.76 105.011 18.032 105.011 18.576C105.011 18.8 105.083 18.992 105.227 19.152C105.387 19.296 105.539 19.368 105.683 19.368C105.843 19.368 105.947 19.36 105.995 19.344C106.043 19.328 106.091 19.312 106.139 19.296C106.187 19.264 106.243 19.224 106.307 19.176C106.387 19.128 106.451 19.08 106.499 19.032C106.563 18.984 106.659 18.912 106.787 18.816C106.915 18.72 107.019 18.64 107.099 18.576Z" fill="black"/>
<path d="M117.917 19.488L117.989 20.112C117.925 20.16 117.181 20.448 115.757 20.976C115.565 22.032 115.317 23.072 115.013 24.096C114.725 25.136 114.429 25.92 114.125 26.448C113.837 26.992 113.493 27.528 113.093 28.056C112.293 29.112 111.213 29.64 109.853 29.64C109.181 29.64 108.645 29.432 108.245 29.016C107.845 28.6 107.645 28.032 107.645 27.312C107.645 24.544 109.965 22.32 114.605 20.64L115.901 16.08C114.525 18.144 113.285 19.416 112.181 19.896C111.637 20.152 111.061 20.28 110.453 20.28C109.861 20.28 109.381 20.088 109.013 19.704C108.661 19.32 108.485 18.76 108.485 18.024C108.485 17.288 108.733 16.264 109.229 14.952C109.741 13.624 110.309 12.512 110.933 11.616L112.109 12.12C112.061 12.168 111.837 12.592 111.437 13.392C110.733 14.848 110.381 15.928 110.381 16.632C110.381 17.336 110.517 17.808 110.789 18.048C111.061 18.288 111.461 18.408 111.989 18.408C112.517 18.408 113.109 18.096 113.765 17.472C114.437 16.832 115.469 15.576 116.861 13.704L117.725 14.208C117.597 14.736 117.309 15.696 116.861 17.088C116.429 18.464 116.133 19.52 115.973 20.256L117.917 19.488ZM114.461 21.36C113.453 21.824 112.565 22.352 111.797 22.944C110.357 24.032 109.637 25.088 109.637 26.112C109.637 26.496 109.749 26.808 109.973 27.048C110.197 27.288 110.477 27.408 110.812 27.408C112.413 27.408 113.629 25.392 114.461 21.36Z" fill="black"/>
</svg>
