<svg width="238" height="60" viewBox="0 0 238 60" fill="none" xmlns="http://www.w3.org/2000/svg">
<g clip-path="url(#clip0_1_4)">
<path d="M11.712 35.624L12.768 36.824C11.968 38.072 10.992 39.048 9.84 39.752C8.72 40.456 7.584 40.808 6.432 40.808C5.28 40.808 4.368 40.488 3.696 39.848C3.024 39.176 2.688 38.264 2.688 37.112C2.688 34.424 3.696 30.712 5.712 25.976C4.08 26.232 2.448 26.616 0.816 27.128L0.48 25.256L0.432 25.208C2.032 24.536 4.128 23.992 6.72 23.576C6.976 23.096 7.552 21.928 8.448 20.072C10.24 16.392 11.52 14.008 12.288 12.92L14.352 13.736C14.032 14.44 13.472 15.624 12.672 17.288C11.872 18.92 10.976 20.776 9.984 22.856C11.424 22.76 12.56 22.712 13.392 22.712C14.224 22.712 14.864 22.84 15.312 23.096V25.16C14.864 25.064 14.208 25.016 13.344 25.016C12.512 25.016 11.008 25.16 8.832 25.448C6.944 29.672 6 32.744 6 34.664C6 35.4 6.224 36.008 6.672 36.488C7.152 36.968 7.776 37.208 8.544 37.208C9.344 37.208 10.4 36.68 11.712 35.624ZM34.8518 37.496L35.9558 38.408C34.6118 40.648 32.8678 41.768 30.7238 41.768C28.8678 41.768 27.9398 40.856 27.9398 39.032C27.9398 37.976 28.3878 36.296 29.2838 33.992C30.2118 31.656 30.6758 30.12 30.6758 29.384C30.6758 28.456 30.0838 27.992 28.8998 27.992C27.7158 27.992 26.0998 29.272 24.0518 31.832C22.0358 34.36 20.3398 37.304 18.9638 40.664L16.1318 39.656C17.7958 31.304 22.1478 20.12 29.1878 6.104L31.5398 6.872C27.9878 13.976 25.4438 19.624 23.9078 23.816C22.3078 28.168 21.1078 31.768 20.3078 34.616C22.7718 30.552 24.8838 27.736 26.6438 26.168C28.4358 24.6 29.9878 23.816 31.2998 23.816C33.6678 23.816 34.8518 24.664 34.8518 26.36C34.8518 27.416 34.2598 29.304 33.0758 32.024C31.8918 34.744 31.2998 36.552 31.2998 37.448C31.2998 38.344 31.7318 38.792 32.5958 38.792C33.0438 38.792 33.7958 38.36 34.8518 37.496ZM46.8814 20.648C45.0894 20.648 44.1934 19.928 44.1934 18.488C44.1934 17.688 44.4174 17.016 44.8654 16.472C45.3134 15.928 45.8894 15.656 46.5934 15.656C47.2974 15.656 47.8734 15.864 48.3214 16.28C48.7694 16.696 48.9934 17.24 48.9934 17.912C48.9934 18.584 48.8014 19.208 48.4174 19.784C48.0334 20.36 47.5214 20.648 46.8814 20.648ZM46.2574 34.808L47.2174 35.624C46.4494 37.096 45.4254 38.36 44.1454 39.416C42.8974 40.44 41.7614 40.952 40.7374 40.952C38.9454 40.952 38.0494 39.704 38.0494 37.208C38.0494 34.104 39.3294 30.056 41.8894 25.064C42.4654 23.976 42.8014 23.336 42.8974 23.144L44.9614 24.392C44.2894 25.608 43.4574 27.544 42.4654 30.2C41.5054 32.856 41.0254 34.568 41.0254 35.336C41.0254 36.072 41.1854 36.6 41.5054 36.92C41.8254 37.24 42.2094 37.4 42.6574 37.4C43.5214 37.4 44.7214 36.536 46.2574 34.808ZM65.6291 22.232L65.1971 24.104C64.6531 24.04 63.9491 24.008 63.0851 24.008C59.8851 24.008 58.2851 25.064 58.2851 27.176C58.2851 27.624 58.9251 28.936 60.2051 31.112C61.5171 33.288 62.1731 34.744 62.1731 35.48C62.1731 37.208 61.5811 38.568 60.3971 39.56C59.2451 40.52 57.6931 41 55.7411 41C53.0531 41 50.8931 39.512 49.2611 36.536L51.0851 35.24C51.5331 35.592 52.0131 36.024 52.5251 36.536C53.0371 37.016 53.4211 37.352 53.6771 37.544C54.2851 38.088 54.9571 38.36 55.6931 38.36C56.4291 38.36 57.0691 38.104 57.6131 37.592C58.1571 37.048 58.4291 36.392 58.4291 35.624C58.4291 34.824 57.7251 33.352 56.3171 31.208C54.9411 29.064 54.2531 27.56 54.2531 26.696C54.2531 25.128 54.9091 23.928 56.2211 23.096C57.5651 22.264 59.3091 21.848 61.4531 21.848C63.6291 21.848 65.0211 21.976 65.6291 22.232ZM75.6158 20.648C73.8238 20.648 72.9278 19.928 72.9278 18.488C72.9278 17.688 73.1518 17.016 73.5998 16.472C74.0478 15.928 74.6238 15.656 75.3278 15.656C76.0318 15.656 76.6078 15.864 77.0558 16.28C77.5038 16.696 77.7278 17.24 77.7278 17.912C77.7278 18.584 77.5358 19.208 77.1518 19.784C76.7678 20.36 76.2558 20.648 75.6158 20.648ZM74.9918 34.808L75.9518 35.624C75.1838 37.096 74.1598 38.36 72.8798 39.416C71.6318 40.44 70.4958 40.952 69.4718 40.952C67.6798 40.952 66.7838 39.704 66.7838 37.208C66.7838 34.104 68.0638 30.056 70.6238 25.064C71.1998 23.976 71.5358 23.336 71.6318 23.144L73.6958 24.392C73.0238 25.608 72.1918 27.544 71.1998 30.2C70.2398 32.856 69.7598 34.568 69.7598 35.336C69.7598 36.072 69.9198 36.6 70.2398 36.92C70.5598 37.24 70.9438 37.4 71.3918 37.4C72.2558 37.4 73.4558 36.536 74.9918 34.808ZM94.3635 22.232L93.9315 24.104C93.3875 24.04 92.6835 24.008 91.8195 24.008C88.6195 24.008 87.0195 25.064 87.0195 27.176C87.0195 27.624 87.6595 28.936 88.9395 31.112C90.2515 33.288 90.9075 34.744 90.9075 35.48C90.9075 37.208 90.3155 38.568 89.1315 39.56C87.9795 40.52 86.4275 41 84.4755 41C81.7875 41 79.6275 39.512 77.9955 36.536L79.8195 35.24C80.2675 35.592 80.7475 36.024 81.2595 36.536C81.7715 37.016 82.1555 37.352 82.4115 37.544C83.0195 38.088 83.6915 38.36 84.4275 38.36C85.1635 38.36 85.8035 38.104 86.3475 37.592C86.8915 37.048 87.1635 36.392 87.1635 35.624C87.1635 34.824 86.4595 33.352 85.0515 31.208C83.6755 29.064 82.9875 27.56 82.9875 26.696C82.9875 25.128 83.6435 23.928 84.9555 23.096C86.2995 22.264 88.0435 21.848 90.1875 21.848C92.3635 21.848 93.7555 21.976 94.3635 22.232ZM115.15 36.152L116.254 36.968C115.806 37.928 114.974 38.84 113.758 39.704C112.574 40.568 111.486 41 110.494 41C108.606 41 107.662 40.008 107.662 38.024C107.662 37.096 107.902 35.992 108.382 34.712L106.606 36.536C104.878 38.296 103.374 39.48 102.094 40.088C100.846 40.696 99.6141 41 98.3981 41C97.1821 41 96.2541 40.664 95.6141 39.992C95.0061 39.288 94.7021 38.328 94.7021 37.112C94.7021 34.872 95.5661 32.664 97.2941 30.488C99.0221 28.28 101.23 26.488 103.918 25.112C106.606 23.736 109.294 23.032 111.982 23L112.078 24.584L110.062 25.016C107.15 25.656 104.574 26.936 102.334 28.856C100.126 30.776 99.0221 32.696 99.0221 34.616C99.0221 36.504 99.7901 37.448 101.326 37.448C102.766 37.448 104.542 36.44 106.654 34.424C108.766 32.408 110.526 30.04 111.934 27.32L113.95 28.52C111.966 32.52 110.974 35.064 110.974 36.152C110.974 36.6 111.118 36.984 111.406 37.304C111.726 37.592 112.03 37.736 112.318 37.736C112.638 37.736 112.846 37.72 112.942 37.688C113.038 37.656 113.134 37.624 113.23 37.592C113.326 37.528 113.438 37.448 113.566 37.352C113.726 37.256 113.854 37.16 113.95 37.064C114.078 36.968 114.27 36.824 114.526 36.632C114.782 36.44 114.99 36.28 115.15 36.152ZM125.506 27.8C127.042 26.232 128.386 25.16 129.538 24.584C130.722 23.976 131.826 23.672 132.85 23.672C133.906 23.672 134.77 24.04 135.442 24.776C136.146 25.48 136.498 26.408 136.498 27.56C136.498 30.536 135.25 33.672 132.754 36.968C130.258 40.232 127.57 41.864 124.69 41.864C123.826 41.864 123.01 41.704 122.242 41.384L123.394 39.272C123.906 39.4 124.306 39.464 124.594 39.464C126.546 39.464 128.322 38.376 129.922 36.2C131.522 34.024 132.322 31.88 132.322 29.768C132.322 29.096 132.098 28.552 131.65 28.136C131.234 27.688 130.69 27.464 130.018 27.464C128.546 27.464 126.818 28.648 124.834 31.016C122.882 33.384 121.17 36.472 119.698 40.28L116.77 39.08C117.73 34.184 119.65 28.216 122.53 21.176C125.41 14.136 127.81 9.16 129.73 6.248L132.178 7.112C130.066 11.048 127.81 15.928 125.41 21.752C123.042 27.576 121.65 31.528 121.234 33.608C122.546 31.304 123.97 29.368 125.506 27.8ZM156.258 37.496L157.362 38.408C156.018 40.648 154.274 41.768 152.13 41.768C150.274 41.768 149.346 40.856 149.346 39.032C149.346 37.976 149.794 36.296 150.69 33.992C151.618 31.656 152.082 30.12 152.082 29.384C152.082 28.456 151.49 27.992 150.306 27.992C149.122 27.992 147.506 29.272 145.458 31.832C143.442 34.36 141.746 37.304 140.37 40.664L137.538 39.656C139.202 31.304 143.554 20.12 150.594 6.104L152.946 6.872C149.394 13.976 146.85 19.624 145.314 23.816C143.714 28.168 142.514 31.768 141.714 34.616C144.178 30.552 146.29 27.736 148.05 26.168C149.842 24.6 151.394 23.816 152.706 23.816C155.074 23.816 156.258 24.664 156.258 26.36C156.258 27.416 155.666 29.304 154.482 32.024C153.298 34.744 152.706 36.552 152.706 37.448C152.706 38.344 153.138 38.792 154.002 38.792C154.45 38.792 155.202 38.36 156.258 37.496ZM168.288 20.648C166.496 20.648 165.6 19.928 165.6 18.488C165.6 17.688 165.824 17.016 166.272 16.472C166.72 15.928 167.296 15.656 168 15.656C168.704 15.656 169.28 15.864 169.728 16.28C170.176 16.696 170.4 17.24 170.4 17.912C170.4 18.584 170.208 19.208 169.824 19.784C169.44 20.36 168.928 20.648 168.288 20.648ZM167.664 34.808L168.624 35.624C167.856 37.096 166.832 38.36 165.552 39.416C164.304 40.44 163.168 40.952 162.144 40.952C160.352 40.952 159.456 39.704 159.456 37.208C159.456 34.104 160.736 30.056 163.296 25.064C163.872 23.976 164.208 23.336 164.304 23.144L166.368 24.392C165.696 25.608 164.864 27.544 163.872 30.2C162.912 32.856 162.432 34.568 162.432 35.336C162.432 36.072 162.592 36.6 162.912 36.92C163.232 37.24 163.616 37.4 164.064 37.4C164.928 37.4 166.128 36.536 167.664 34.808ZM191.451 35.192L192.459 35.96C191.755 37.368 190.779 38.552 189.531 39.512C188.315 40.472 187.211 40.952 186.219 40.952C185.227 40.952 184.443 40.664 183.867 40.088C183.291 39.512 183.003 38.792 183.003 37.928C183.003 37.064 183.547 35.56 184.635 33.416C185.755 31.24 186.315 29.64 186.315 28.616C186.315 28.168 186.123 27.768 185.739 27.416C185.387 27.032 184.955 26.84 184.443 26.84C182.811 26.84 181.163 28.088 179.499 30.584C177.835 33.048 175.979 36.616 173.931 41.288L171.051 40.28C171.659 36.568 172.523 32.952 173.643 29.432C174.795 25.88 175.851 23.336 176.811 21.8L178.779 22.424C177.883 24.696 176.747 28.616 175.371 34.184C179.787 26.632 183.851 22.856 187.563 22.856C188.363 22.856 189.019 23.128 189.531 23.672C190.075 24.216 190.347 24.856 190.347 25.592C190.347 26.328 190.251 27 190.059 27.608C189.867 28.184 189.259 29.56 188.235 31.736C187.243 33.88 186.747 35.224 186.747 35.768C186.747 36.312 186.907 36.744 187.227 37.064C187.547 37.352 187.851 37.496 188.139 37.496C188.427 37.496 188.667 37.448 188.859 37.352C189.051 37.256 189.259 37.112 189.483 36.92C189.739 36.728 189.963 36.552 190.155 36.392C190.347 36.232 190.571 36.024 190.827 35.768C191.115 35.48 191.323 35.288 191.451 35.192ZM214.197 36.152L215.301 36.968C214.853 37.928 214.021 38.84 212.805 39.704C211.621 40.568 210.533 41 209.541 41C207.653 41 206.709 40.008 206.709 38.024C206.709 37.096 206.949 35.992 207.429 34.712L205.653 36.536C203.925 38.296 202.421 39.48 201.141 40.088C199.893 40.696 198.661 41 197.445 41C196.229 41 195.301 40.664 194.661 39.992C194.053 39.288 193.749 38.328 193.749 37.112C193.749 34.872 194.613 32.664 196.341 30.488C198.069 28.28 200.277 26.488 202.965 25.112C205.653 23.736 208.341 23.032 211.029 23L211.125 24.584L209.109 25.016C206.197 25.656 203.621 26.936 201.381 28.856C199.173 30.776 198.069 32.696 198.069 34.616C198.069 36.504 198.837 37.448 200.373 37.448C201.813 37.448 203.589 36.44 205.701 34.424C207.813 32.408 209.573 30.04 210.981 27.32L212.997 28.52C211.013 32.52 210.021 35.064 210.021 36.152C210.021 36.6 210.165 36.984 210.453 37.304C210.773 37.592 211.077 37.736 211.365 37.736C211.685 37.736 211.893 37.72 211.989 37.688C212.085 37.656 212.181 37.624 212.277 37.592C212.373 37.528 212.485 37.448 212.613 37.352C212.773 37.256 212.901 37.16 212.997 37.064C213.125 36.968 213.317 36.824 213.573 36.632C213.829 36.44 214.037 36.28 214.197 36.152ZM235.833 37.976L235.977 39.224C235.849 39.32 234.361 39.896 231.513 40.952C231.129 43.064 230.633 45.144 230.025 47.192C229.449 49.272 228.857 50.84 228.249 51.896C227.673 52.984 226.985 54.056 226.185 55.112C224.585 57.224 222.425 58.28 219.705 58.28C218.361 58.28 217.289 57.864 216.489 57.032C215.689 56.2 215.289 55.064 215.289 53.624C215.289 48.088 219.929 43.64 229.209 40.28L231.801 31.16C229.049 35.288 226.569 37.832 224.361 38.792C223.273 39.304 222.121 39.56 220.905 39.56C219.721 39.56 218.761 39.176 218.025 38.408C217.321 37.64 216.969 36.52 216.969 35.048C216.969 33.576 217.465 31.528 218.457 28.904C219.481 26.248 220.617 24.024 221.865 22.232L224.217 23.24C224.121 23.336 223.673 24.184 222.873 25.784C221.465 28.696 220.761 30.856 220.761 32.264C220.761 33.672 221.033 34.616 221.577 35.096C222.121 35.576 222.921 35.816 223.977 35.816C225.033 35.816 226.217 35.192 227.529 33.944C228.873 32.664 230.937 30.152 233.721 26.408L235.449 27.416C235.193 28.472 234.617 30.392 233.721 33.176C232.857 35.928 232.265 38.04 231.945 39.512L235.833 37.976ZM228.921 41.72C226.905 42.648 225.129 43.704 223.593 44.888C220.713 47.064 219.273 49.176 219.273 51.224C219.273 51.992 219.497 52.616 219.945 53.096C220.393 53.576 220.953 53.816 221.625 53.816C224.825 53.816 227.257 49.784 228.921 41.72Z" fill="white"/>
</g>
<defs>
<clipPath id="clip0_1_4">
<rect width="238" height="60" fill="white"/>
</clipPath>
</defs>
</svg>
